<?xml version="1.0" encoding="UTF-8" standalone="no"?>
<!-- Created with Inkscape (http://www.inkscape.org/) -->

<svg
   xmlns:dc="http://purl.org/dc/elements/1.1/"
   xmlns:cc="http://creativecommons.org/ns#"
   xmlns:rdf="http://www.w3.org/1999/02/22-rdf-syntax-ns#"
   xmlns:svg="http://www.w3.org/2000/svg"
   xmlns="http://www.w3.org/2000/svg"
   xmlns:sodipodi="http://sodipodi.sourceforge.net/DTD/sodipodi-0.dtd"
   xmlns:inkscape="http://www.inkscape.org/namespaces/inkscape"
   width="1300"
   height="190"
   viewBox="0 0 1300 190.00001"
   version="1.1"
   id="svg5713"
   inkscape:version="0.91+devel r14527 custom"
   sodipodi:docname="adult-silhouette.svg">
  <defs
     id="defs5707">
    <clipPath
       clipPathUnits="userSpaceOnUse"
       id="clipPath4770">
      <path
         style="fill:none;fill-rule:evenodd;stroke:#000000;stroke-width:1px;stroke-linecap:butt;stroke-linejoin:miter;stroke-opacity:1"
         d="m 714.20624,1001.3633 -22.31379,1.6488 23.23003,22.7959 z"
         id="path4772"
         inkscape:connector-curvature="0"
         sodipodi:nodetypes="cccc" />
    </clipPath>
    <clipPath
       clipPathUnits="userSpaceOnUse"
       id="clipPath4930">
      <path
         style="fill:none;fill-rule:evenodd;stroke:#000000;stroke-width:1.1554389px;stroke-linecap:butt;stroke-linejoin:miter;stroke-opacity:1"
         d="M 48.79026,54.023753 14.80641,54.72585 55.59064,84.22741 Z"
         id="path4932"
         inkscape:connector-curvature="0" />
    </clipPath>
  </defs>
  <sodipodi:namedview
     id="base"
     pagecolor="#ffffff"
     bordercolor="#666666"
     borderopacity="1.0"
     inkscape:pageopacity="0.0"
     inkscape:pageshadow="2"
     inkscape:zoom="1.979899"
     inkscape:cx="1452.4172"
     inkscape:cy="101.98336"
     inkscape:document-units="px"
     inkscape:current-layer="layer3"
     showgrid="false"
     units="px"
     fit-margin-top="0"
     fit-margin-left="0"
     fit-margin-right="0"
     fit-margin-bottom="0"
     inkscape:window-width="1920"
     inkscape:window-height="1016"
     inkscape:window-x="0"
     inkscape:window-y="27"
     inkscape:window-maximized="1"
     inkscape:snap-global="false"
     inkscape:object-paths="true" />
  <metadata
     id="metadata5710">
    <rdf:RDF>
      <cc:Work
         rdf:about="">
        <dc:format>image/svg+xml</dc:format>
        <dc:type
           rdf:resource="http://purl.org/dc/dcmitype/StillImage" />
        <dc:title></dc:title>
      </cc:Work>
    </rdf:RDF>
  </metadata>
  <g
     inkscape:groupmode="layer"
     id="layer3"
     inkscape:label="Layer"
     transform="translate(0,15)">
    <path
       style="fill:#000000;fill-opacity:1;fill-rule:evenodd;stroke:none;stroke-width:1.20317602px;stroke-linecap:butt;stroke-linejoin:miter;stroke-opacity:1"
       d="m 66.84375,16.808594 -30.789062,2.419922 1.144531,31.220703 5.83789,0.255859 -0.01367,6.509766 0.638671,0.01172 c -2.521301,15.184755 -4.765818,25.210786 -4.689453,33.476563 0.08844,9.572933 1.301597,12.786203 3.699219,17.181643 l -0.324219,5.04492 0.482422,0.0176 c -0.35077,9.23006 -0.658213,17.18542 -0.703125,23.27929 0.643448,0.16839 1.282075,0.31037 1.919922,0.44141 L 41.464845,189.65627 51.738282,137.459 c 0.30666,0.002 0.612256,-0.005 0.917969,-0.01 l 8.841797,52.20703 -0.597656,-52.98047 c 0.966564,-0.15658 1.930745,-0.32948 2.892578,-0.51758 -0.426767,-8.27919 -0.592305,-20.26987 -0.697266,-33.42187 3.590299,-3.644906 5.79249,-7.235081 5.898438,-14.18164 C 69.100285,81.595451 67.85588,73.976617 66.236329,66.98611 65.778636,60.715523 64.301194,53.9413 63.765626,51.615016 l 3.615234,0.158204 z m 100,0 -30.78906,2.419922 1.14453,31.220703 5.83789,0.255859 -0.0137,6.509766 0.63672,0.01172 c -2.5213,15.184736 -4.76387,25.210792 -4.6875,33.476563 0.0885,9.574373 1.30085,12.787113 3.69922,17.183593 l -0.32422,5.04297 0.48242,0.0176 c -0.35077,9.23006 -0.65822,17.18542 -0.70313,23.27929 1.04107,0.27245 2.07292,0.48938 3.09961,0.66602 l 0.004,8.88867 7.09375,29.30273 0.35547,14.57227 0.94922,-9.18945 0.21484,0.89062 -0.0371,-2.60937 4.30274,-41.68164 c 1.90561,-0.22925 3.79888,-0.53964 5.68359,-0.90821 -0.42677,-8.27919 -0.59231,-20.26987 -0.69727,-33.42187 3.59011,-3.644791 5.79054,-7.235294 5.89649,-14.18164 0.10609,-6.955786 -1.13742,-14.570743 -2.75586,-21.558594 -0.45674,-6.272714 -1.93486,-13.053372 -2.47071,-15.38086 l 3.61524,0.158204 z m 100,0 -30.78906,2.419922 1.14453,31.220703 5.83789,0.255859 -0.0137,6.509766 0.63672,0.01172 c -2.5213,15.184736 -4.76388,25.210792 -4.6875,33.476563 0.0885,9.574373 1.30086,12.787113 3.69922,17.183593 l -0.32422,5.04297 0.48242,0.0176 c -0.35077,9.23006 -0.65822,17.18542 -0.70313,23.27929 0.2837,0.0742 0.56507,0.13823 0.84766,0.20508 l -0.67773,7.17969 8.61523,35.57617 -0.49805,-34.31445 1.42774,-7.41602 c 0.15915,5.7e-4 0.31767,-0.005 0.47656,-0.006 l 6.80273,52.20508 1.03516,-52.87305 c 1.21582,-0.18452 2.42867,-0.38875 3.63672,-0.625 -0.42677,-8.27919 -0.59231,-20.26987 -0.69727,-33.42187 3.59011,-3.644791 5.79054,-7.235294 5.89649,-14.18164 0.10609,-6.955786 -1.13742,-14.570743 -2.75586,-21.558594 -0.45674,-6.272714 -1.93486,-13.053372 -2.47071,-15.38086 l 3.61524,0.158204 z m 100,0 -30.78906,2.419922 1.14453,31.220703 5.83789,0.255859 -0.0137,6.509766 0.63672,0.01172 c -2.5213,15.184736 -4.76388,25.210792 -4.6875,33.476563 0.0884,9.574373 1.30086,12.787113 3.69922,17.183593 l -0.32422,5.04297 0.47851,0.0176 c -0.40123,9.52789 -2.86027,17.0474 -2.90625,23.27929 0.26022,0.0681 0.63741,0.12563 0.9707,0.1875 l -1.24414,6.83008 1.02149,35.94336 7.09375,-34.68164 3.16797,-11.38477 0.79101,4.33789 c 0.26623,0.002 0.53136,-0.007 0.79688,-0.01 l 7.99414,52.20703 0.0801,-52.93359 c 1.06994,-0.16887 2.13711,-0.35637 3.20117,-0.56446 -0.42677,-8.27919 -0.59231,-20.26987 -0.69727,-33.42187 3.59009,-3.644791 5.79056,-7.235294 5.89649,-14.18164 0.10614,-6.955786 -1.13741,-14.570743 -2.75586,-21.558594 -0.45674,-6.272714 -1.93486,-13.053372 -2.47071,-15.38086 l 3.61524,0.158204 z m 100,0 -30.78906,2.419922 1.14453,31.220703 5.83789,0.255859 -0.0137,6.509766 0.63672,0.01172 c -2.5213,15.184736 -4.76388,25.210792 -4.6875,33.476563 0.0884,9.574373 1.30086,12.787113 3.69922,17.183593 l -0.32422,5.04297 0.12304,0.004 c -1.23852,9.53427 -3.71189,17.05824 -3.75781,23.29297 0.31967,0.0837 0.76344,0.16204 1.24805,0.23633 l -1.57813,7.14844 0.51563,38.86523 7.60156,-37.60351 4.1582,-13.23633 1.0625,5.82226 c 0.33736,0.002 0.67356,-0.006 1.00977,-0.0117 l 9.29492,52.20898 -0.96094,-53.00977 c 0.91146,-0.14963 1.82124,-0.31085 2.72852,-0.48828 -0.42677,-8.27919 -0.59231,-20.26987 -0.69727,-33.42187 3.59009,-3.644791 5.79056,-7.235294 5.89649,-14.18164 0.10614,-6.955786 -1.13741,-14.570743 -2.75586,-21.558594 -0.45674,-6.272714 -1.93486,-13.053372 -2.47071,-15.38086 l 3.61524,0.158204 z m 100,0 -30.78906,2.419922 1.14453,31.220703 5.83789,0.255859 -0.0137,6.509766 0.63672,0.01172 c -2.5213,15.184736 -4.76388,25.210792 -4.6875,33.476563 0.0884,9.573373 1.30137,12.785883 3.69922,17.181643 l -0.32422,5.04492 0.45507,0.0176 c -0.52149,9.51891 -2.31939,17.05156 -2.36523,23.27929 0.28876,0.0756 0.67123,0.14108 1.02734,0.20899 l -8.00781,50.75781 17.22461,-55.42969 1.03906,5.69531 c 0.61652,0.004 1.23098,-0.0102 1.84375,-0.0312 l 14.41407,52.22852 -5.0918,-53.33594 c 0.30175,-0.0562 0.60491,-0.10318 0.90625,-0.16211 -0.42677,-8.27919 -0.59231,-20.26987 -0.69727,-33.42187 3.59009,-3.644791 5.79056,-7.235294 5.89649,-14.18164 0.10611,-6.953772 -1.13615,-14.566538 -2.75391,-21.552735 -0.45617,-6.274224 -1.9367,-13.058773 -2.47266,-15.386719 l 3.61524,0.158204 z m 100,0 -30.78906,2.419922 1.14453,31.220703 5.83789,0.255859 -0.0137,6.509766 0.63672,0.01172 c -2.5213,15.184736 -4.76388,25.210792 -4.6875,33.476563 0.0884,9.574373 1.30086,12.787113 3.69922,17.183593 l -0.32422,5.04297 0.45507,0.0176 c -0.50581,9.52226 -1.51461,17.05004 -1.56054,23.27929 0.35302,0.0924 0.75744,0.17293 1.16015,0.25391 l -5.99218,50.71289 13.54687,-49.96875 0.0195,0.41211 c 0.40453,0.003 0.83593,-0.006 1.26953,-0.0176 l 0.46485,13.51758 11.06054,29.70898 -3.4082,-33.42773 0.38477,-10.59375 c 1.44208,-0.20769 2.83552,-0.42951 4.04492,-0.66602 -0.42677,-8.27919 -0.59231,-20.26987 -0.69727,-33.42187 3.59009,-3.644791 5.79056,-7.235294 5.89649,-14.18164 0.10611,-6.953772 -1.13615,-14.566538 -2.75391,-21.552735 -0.45617,-6.274224 -1.9367,-13.058773 -2.47266,-15.386719 l 3.61524,0.158204 z m 100,0 -30.78906,2.419922 1.14453,31.220703 5.83789,0.255859 -0.0137,6.509766 0.63672,0.01172 c -2.5213,15.184736 -4.76388,25.210792 -4.6875,33.476563 0.0884,9.573373 1.30137,12.785883 3.69922,17.181643 l -0.32422,5.04492 0.46875,0.0176 c -0.40858,9.50033 -1.1788,17.06014 -1.22461,23.27929 0.36364,0.0952 0.75769,0.17865 1.15234,0.26172 l -5.26172,50.70508 12.20508,-47.53906 -0.29883,11.48242 14.93555,27.29101 -7.2832,-31.00976 1.08398,-10.50195 c 2.10986,-0.21165 4.14352,-0.4597 5.66797,-0.75782 -0.42677,-8.27919 -0.59231,-20.26987 -0.69727,-33.42187 3.59009,-3.644791 5.79056,-7.235294 5.89649,-14.18164 0.10614,-6.955786 -1.13741,-14.570743 -2.75586,-21.558594 -0.45674,-6.272714 -1.93486,-13.053372 -2.47071,-15.38086 l 3.61524,0.158204 z m 100,0 -30.78906,2.419922 1.14453,31.220703 5.83789,0.255859 -0.0137,6.509766 0.63672,0.01172 c -2.5213,15.184736 -4.76388,25.210792 -4.6875,33.476563 0.0884,9.574373 1.30086,12.787113 3.69922,17.183593 l -0.32422,5.04297 0.48242,0.0176 c -0.35078,9.23006 -0.65822,17.18542 -0.70313,23.27929 0.74533,0.19505 1.48482,0.35676 2.22266,0.50196 l -1.81641,50.46484 6.70703,-35.49414 9.02344,25.63281 -3.24219,-34.66797 1.09961,-5.88281 c 2.94596,-0.0863 5.81816,-0.26063 7.67188,-0.62305 -0.42677,-8.27919 -0.59231,-20.26987 -0.69727,-33.42187 3.59009,-3.644791 5.79056,-7.235294 5.89649,-14.18164 0.10614,-6.955786 -1.13741,-14.570743 -2.75586,-21.558594 -0.45674,-6.272714 -1.93486,-13.053372 -2.47071,-15.38086 l 3.61524,0.158204 z m 100,0 -30.78906,2.419922 1.14453,31.220703 5.83789,0.255859 -0.0137,6.509766 0.63672,0.01172 c -2.5213,15.184736 -4.76388,25.210792 -4.6875,33.476563 0.0884,9.574373 1.30086,12.787113 3.69922,17.183593 l -0.32422,5.04297 0.48242,0.0176 c -0.35078,9.23006 -0.65822,17.18542 -0.70313,23.27929 1.27306,0.33315 2.53334,0.58574 3.78516,0.77735 l 0.0332,1.17578 -0.92383,5.31054 1.24414,5.88868 1.08008,37.81445 2.43946,-21.15625 2.4707,11.69336 0.0293,-33.37109 0.17382,-1.50977 1.66407,-6.14844 c 3.84319,0.0632 7.66878,-0.15163 9.66992,-0.54297 -0.42677,-8.27919 -0.59231,-20.26987 -0.69727,-33.42187 3.59009,-3.644791 5.79056,-7.235294 5.89649,-14.18164 0.10611,-6.953772 -1.13615,-14.566538 -2.75391,-21.552735 -0.45617,-6.274224 -1.9367,-13.058773 -2.47266,-15.386719 l 3.61524,0.158204 z m 100.00005,0 -30.7891,2.419922 1.1445,31.220703 5.8379,0.255859 -0.014,6.509766 0.6368,0.01172 c -2.5214,15.184736 -4.7639,25.210792 -4.6875,33.476563 0.088,9.574373 1.3008,12.787113 3.6992,17.183593 l -0.3242,5.04297 0.4824,0.0176 c -0.3508,9.23006 -0.6582,17.18542 -0.7031,23.27929 1.1091,0.29027 2.2078,0.51732 3.3007,0.69922 l -1.416,6.92969 1.8418,33.875 3.0274,-18.91211 2.2519,28.375 3.2832,-50.9082 c 3.7294,0.17779 7.4206,0.25564 9.377,-0.12696 -0.4268,-8.27919 -0.5923,-20.26987 -0.6973,-33.42187 3.5901,-3.644791 5.7906,-7.235294 5.8965,-14.18164 0.1061,-6.955786 -1.1374,-14.570743 -2.7559,-21.558594 -0.4567,-6.272935 -1.9349,-13.053645 -2.4707,-15.38086 l 3.6153,0.158204 z m 100,0 -30.7891,2.419922 1.1445,31.220703 5.8379,0.255859 -0.014,6.509766 0.6368,0.01172 c -2.5214,15.184736 -4.7638,25.210792 -4.6875,33.476563 0.088,9.574373 1.3008,12.787113 3.6992,17.183593 l -0.3242,5.04297 0.4824,0.0176 c -0.3508,9.23006 -0.6582,17.18542 -0.7031,23.27929 1.6971,0.44414 3.3729,0.74913 5.0332,0.94727 0.091,0.73431 0.1736,1.46596 0.2714,2.20312 l -5.0703,45.85743 7.6289,-30.31446 c 2.0384,10.41724 4.8049,21.14413 8.5157,32.27344 -2.1058,-16.19995 -3.6967,-32.74535 -3.42,-50.53711 3.3611,-0.004 6.7126,-0.10801 8.7071,-0.49805 -0.4268,-8.27919 -0.5923,-20.26987 -0.6973,-33.42187 3.5901,-3.644791 5.7906,-7.235294 5.8965,-14.18164 0.1061,-6.955786 -1.1374,-14.570743 -2.7559,-21.558594 -0.4567,-6.272935 -1.9349,-13.053645 -2.4707,-15.38086 l 3.6153,0.158204 z m 100,0 -30.7891,2.419922 1.1445,31.220703 5.8379,0.255859 -0.014,6.509766 0.6368,0.01172 c -2.5214,15.184736 -4.7638,25.210792 -4.6875,33.476563 0.088,9.574373 1.3008,12.787113 3.6992,17.183593 l -0.3242,5.04297 0.4824,0.0176 c -0.3508,9.23006 -0.6582,17.18542 -0.7031,23.27929 1.2479,0.32659 2.4834,0.57524 3.7109,0.76563 0.5382,5.2825 1.4097,10.2397 2.7109,15.10547 l -1.5429,33.13672 4.5078,-24.01954 c 1.8318,4.73684 4.1284,9.5486 6.9922,14.67774 -2.2714,-10.34135 -3.9633,-18.53802 -4.4004,-28.48242 l 1.959,-10.4375 c 2.8818,-0.16459 5.7483,-0.42723 7.7285,-0.81446 -0.4268,-8.27919 -0.5923,-20.26987 -0.6973,-33.42187 3.5901,-3.644791 5.7906,-7.235294 5.8965,-14.18164 0.1061,-6.955786 -1.1374,-14.570743 -2.7559,-21.558594 -0.4567,-6.272935 -1.9349,-13.053645 -2.4707,-15.38086 l 3.6153,0.158204 z"
       transform="translate(0,-15)"
       id="path7828"
       inkscape:connector-curvature="0"
       sodipodi:nodetypes="cccsccccccccccccscccccccccccccccccccccccccscccccccccccccccccccccccccsccccccccccccccccccccccccccccccccccccccccccccccccccccccccccccccccccccccccccccccccccccccccccccccccccccccccccccccccccccccccccccccccccccccccccccccccccccccccccccccccccccccccccccccccccccccccccccccccccccccccccccccccccccccccccccccccccccccccccccccccccccccccccccccccccccccc" />
  </g>
</svg>
