<?xml version="1.0" encoding="UTF-8" standalone="no"?>
<!-- Created with Inkscape (http://www.inkscape.org/) -->

<svg
   xmlns:dc="http://purl.org/dc/elements/1.1/"
   xmlns:cc="http://creativecommons.org/ns#"
   xmlns:rdf="http://www.w3.org/1999/02/22-rdf-syntax-ns#"
   xmlns:svg="http://www.w3.org/2000/svg"
   xmlns="http://www.w3.org/2000/svg"
   xmlns:sodipodi="http://sodipodi.sourceforge.net/DTD/sodipodi-0.dtd"
   xmlns:inkscape="http://www.inkscape.org/namespaces/inkscape"
   width="2700"
   height="150"
   viewBox="0 0 2700 150.00001"
   version="1.1"
   id="svg5713"
   inkscape:version="0.91+devel r14527 custom"
   sodipodi:docname="boy-silhouette.svg">
  <defs
     id="defs5707" />
  <sodipodi:namedview
     id="base"
     pagecolor="#ffffff"
     bordercolor="#666666"
     borderopacity="1.0"
     inkscape:pageopacity="0.0"
     inkscape:pageshadow="2"
     inkscape:zoom="1.979899"
     inkscape:cx="1306.7464"
     inkscape:cy="95.677163"
     inkscape:document-units="px"
     inkscape:current-layer="layer1"
     showgrid="false"
     units="px"
     fit-margin-top="0"
     fit-margin-left="0"
     fit-margin-right="0"
     fit-margin-bottom="0"
     inkscape:window-width="1920"
     inkscape:window-height="1016"
     inkscape:window-x="0"
     inkscape:window-y="27"
     inkscape:window-maximized="1"
     inkscape:snap-global="false" />
  <metadata
     id="metadata5710">
    <rdf:RDF>
      <cc:Work
         rdf:about="">
        <dc:format>image/svg+xml</dc:format>
        <dc:type
           rdf:resource="http://purl.org/dc/dcmitype/StillImage" />
        <dc:title></dc:title>
      </cc:Work>
    </rdf:RDF>
  </metadata>
  <g
     inkscape:label="Layer 1"
     inkscape:groupmode="layer"
     id="layer1"
     transform="translate(-667.24307,-945.32765)">
    <path
       style="fill:#000000;fill-opacity:1;fill-rule:evenodd;stroke:none;stroke-width:3.99999976px;stroke-linecap:butt;stroke-linejoin:miter;stroke-opacity:1"
       d="M 2152.6738 14.390625 L 2125.332 28.751953 L 2138.6914 56.992188 L 2146.2168 54.148438 L 2146.1387 57.447266 L 2143.8418 57.447266 C 2143.06 64.141208 2142.5263 66.9544 2141.6719 67.755859 C 2140.893 67.459335 2140.0115 67.213641 2139.0664 67.007812 C 2136.7333 65.362902 2132.937 62.320992 2125.7637 63.460938 C 2133.4785 66.660267 2139.9901 75.486768 2144.9629 73.416016 C 2145.2387 73.680077 2145.4802 73.902301 2145.7441 74.154297 L 2145.2168 96.46875 L 2141.4629 149.65625 L 2152.2305 111.86523 L 2161.498 149.65625 L 2160.6289 96.46875 L 2160.5469 72.199219 C 2163.1795 68.447726 2164.3014 63.610891 2163.3633 57.447266 L 2160.498 57.447266 L 2160.4805 52.103516 L 2151.627 52.103516 L 2166.9512 46.3125 L 2152.6738 14.390625 z M 2246.1875 14.568359 L 2221.8242 33.544922 L 2232.5039 48.507812 C 2235.7989 58.336384 2235.3708 69.876285 2240.9121 71.099609 C 2242.4789 71.445523 2244.1465 70.839736 2245.8672 68.949219 L 2245.2168 96.46875 L 2241.4629 149.65625 L 2252.2305 111.86523 L 2261.498 149.65625 L 2260.6289 96.46875 L 2260.5078 60.345703 C 2261.4102 59.460503 2262.3479 58.515149 2263.3633 57.447266 L 2260.498 57.447266 L 2260.4805 52.103516 L 2251.4512 52.103516 L 2265.8965 43.455078 L 2246.1875 14.568359 z M 2055.5996 14.689453 L 2027.1895 26.800781 L 2038.2305 56.027344 L 2046.2266 53.722656 L 2046.1387 57.447266 L 2043.8418 57.447266 C 2043.1015 63.381737 2042.7236 70.316527 2039.9082 75.683594 C 2036.2316 74.211745 2032.441 72.561527 2029.1035 74.408203 C 2027.7653 74.28982 2027.1725 75.203601 2027.4863 75.962891 C 2027.145 76.384624 2026.8064 76.787235 2026.5039 76.972656 C 2027.0819 76.860841 2027.6963 76.839967 2028.3359 76.880859 C 2031.3194 79.39358 2036.9703 82.263875 2041.1094 81.087891 C 2042.6073 81.593075 2044.0984 81.980808 2045.5547 82.173828 L 2045.2168 96.46875 L 2041.4629 149.65625 L 2052.2324 111.86523 L 2061.498 149.65625 L 2060.6289 96.46875 L 2060.5488 72.318359 C 2063.2028 67.842087 2064.1759 62.786622 2063.3633 57.447266 L 2060.5 57.447266 L 2060.4824 52.103516 L 2051.8398 52.103516 L 2067.2598 47.658203 L 2055.5996 14.689453 z M 1957.9824 15.111328 L 1928.832 25.3125 L 1937.9102 55.207031 L 1946.2344 53.394531 L 1946.1387 57.447266 L 1943.8418 57.447266 C 1942.1178 72.207766 1941.2224 80.83305 1926.3984 84.03125 C 1931.579 84.83696 1935.5819 84.721944 1938.75 83.630859 C 1941.0455 83.670973 1943.3255 83.750713 1945.5176 83.748047 L 1945.2168 96.46875 L 1941.4629 149.65625 L 1952.2305 111.86914 L 1961.498 149.65625 L 1960.6289 96.46875 L 1960.5664 77.621094 C 1963.7936 72.527956 1964.471 64.7257 1963.3633 57.447266 L 1960.498 57.447266 L 1960.4805 52.103516 L 1952.168 52.103516 L 1967.4297 48.78125 L 1957.9824 15.111328 z M 2346.1895 15.548828 L 2321.8242 34.527344 L 2332.5332 49.53125 C 2335.7983 59.159385 2335.3863 69.879701 2340.9121 71.099609 C 2342.478 71.445326 2344.1456 70.719908 2345.8652 68.705078 L 2345.2168 96.46875 L 2341.4629 149.65625 L 2352.2324 111.86523 L 2361.498 149.65625 L 2360.6289 96.46875 L 2360.5098 59.818359 C 2361.4116 58.927402 2362.3486 57.979244 2363.3633 56.912109 L 2360.5 56.912109 L 2360.4824 51.568359 L 2353.9863 51.568359 L 2365.8965 44.4375 L 2346.1895 15.548828 z M 1863.6895 16.816406 L 1833.2676 22.138672 L 1837.3594 53.111328 L 1846.2539 52.658203 L 1846.1406 57.447266 L 1843.8438 57.447266 C 1842.1197 72.207766 1839.7032 86.795262 1832.6621 100.22656 C 1838.7814 94.846881 1842.7543 88.241803 1845.584 80.982422 L 1845.2168 96.46875 L 1841.4648 149.65625 L 1852.2324 111.86719 L 1861.498 149.65625 L 1860.6289 96.46875 L 1860.5801 81.613281 C 1863.311 74.190778 1864.6383 65.812444 1863.3652 57.447266 L 1860.5 57.447266 L 1860.4824 52.103516 L 1857.166 52.103516 L 1867.5312 51.576172 L 1863.6895 16.816406 z M 66.84375 18.224609 L 36.054688 20.642578 L 37.199219 51.865234 L 46.261719 52.263672 L 46.138672 57.447266 L 43.84375 57.447266 L 41.751953 104.51953 L 45.439453 87.072266 L 45.216797 96.46875 L 41.464844 149.65625 L 52.232422 111.86719 L 61.498047 149.65625 L 60.628906 96.46875 L 60.568359 78.060547 C 62.132274 87.350705 62.887311 96.758608 62.863281 106.21094 C 65.902581 91.299638 66.126934 75.593566 63.365234 57.447266 L 60.5 57.447266 L 60.484375 52.886719 L 67.380859 53.189453 L 66.84375 18.224609 z M 166.84375 18.224609 L 136.05469 20.642578 L 137.19922 51.865234 L 146.26367 52.263672 L 146.14062 57.447266 L 143.8418 57.447266 L 141.75195 104.51953 L 145.44141 87.0625 L 145.21875 96.46875 L 145.2168 96.46875 L 145.23047 119.34766 L 152.32422 139.58984 L 152.67969 149.65625 L 153.62891 143.30859 L 153.84375 143.92383 L 153.80664 142.12109 L 160.62891 96.46875 L 160.56836 78.070312 C 162.13116 87.357298 162.8873 96.761921 162.86328 106.21094 C 165.90258 91.299638 166.12498 75.593566 163.36328 57.447266 L 160.5 57.447266 L 160.48438 52.886719 L 167.38086 53.189453 L 166.84375 18.224609 z M 266.84375 18.224609 L 236.05469 20.642578 L 237.19922 51.865234 L 246.26367 52.263672 L 246.14062 57.447266 L 243.8418 57.447266 L 242.82422 104.51953 L 245.34375 91.152344 L 245.21875 96.46875 L 242.29688 117.84961 L 250.91211 142.42383 L 250.41406 118.7207 L 252.12695 112.57617 L 259.12109 149.65625 L 260.62891 96.46875 L 260.58008 81.511719 C 261.50662 89.678037 261.81207 97.927225 261.79102 106.21094 C 264.83032 91.299638 266.12498 75.593566 263.36328 57.447266 L 260.5 57.447266 L 260.48438 52.886719 L 267.38086 53.189453 L 266.84375 18.224609 z M 366.84375 18.224609 L 336.05469 20.642578 L 337.19922 51.865234 L 346.26367 52.263672 L 346.14062 57.447266 L 343.8418 57.447266 L 343.89258 101.49609 L 339.64648 117.5957 L 340.66797 142.42383 L 347.76172 118.46875 L 351.52539 109.12305 L 360.51172 149.65625 L 360.62891 96.46875 L 360.61914 93.232422 C 360.72064 97.545098 360.73173 101.87269 360.7207 106.21094 C 363.76 91.299638 366.12498 75.593566 363.36328 57.447266 L 360.5 57.447266 L 360.48438 52.886719 L 367.38086 53.189453 L 366.84375 18.224609 z M 466.84375 18.224609 L 436.05469 20.642578 L 437.19922 51.865234 L 446.26367 52.263672 L 446.14062 57.447266 L 443.8418 57.447266 L 445.2793 93.933594 L 445.21875 96.46875 L 438.38281 117.84961 L 438.89844 144.69727 L 446.5 118.7207 L 451.32031 108.12109 L 462.02539 149.65625 L 460.66992 98.029297 C 463.6116 85.746781 465.61468 72.240509 463.36328 57.447266 L 460.5 57.447266 L 460.48438 52.886719 L 467.38086 53.189453 L 466.84375 18.224609 z M 566.84375 18.224609 L 536.05469 20.642578 L 537.19922 51.865234 L 546.26172 52.263672 L 546.13867 57.447266 L 543.84375 57.447266 L 545.56641 81.650391 L 545.2168 96.46875 L 533.45703 147.95508 L 551.38086 108.11133 L 567.97852 149.65625 L 560.62891 96.46875 L 560.62305 94.419922 C 563.62382 83.298499 565.37334 70.654735 563.36328 57.447266 L 560.5 57.447266 L 560.48438 52.886719 L 567.38086 53.189453 L 566.84375 18.224609 z M 666.84375 18.224609 L 636.05469 20.642578 L 637.19727 51.865234 L 646.26172 52.263672 L 646.13867 57.447266 L 643.8418 57.447266 L 644.96484 97.9375 L 636.41016 147.95508 L 651.08984 110.55273 L 651.71094 123.04688 L 662.77148 143.57031 L 659.36328 120.47852 L 660.38086 101.16992 C 664.16407 88.551971 665.79221 73.407058 663.36328 57.447266 L 660.49805 57.447266 L 660.48242 52.886719 L 667.37891 53.189453 L 666.84375 18.224609 z M 766.84375 18.224609 L 736.05469 20.642578 L 737.19727 51.865234 L 746.26172 52.263672 L 746.13867 57.447266 L 743.8418 57.447266 L 744.47266 101.41992 L 737.48242 147.95508 L 749.6875 115.11523 L 749.38867 123.04688 L 764.32422 141.90039 L 757.04102 120.47852 L 760.08203 100.125 C 759.99043 102.14261 759.87169 104.17017 759.72266 106.21094 C 764.65596 92.688638 766.12498 75.593566 763.36328 57.447266 L 760.49805 57.447266 L 760.48242 52.886719 L 767.37891 53.189453 L 766.84375 18.224609 z M 866.84375 18.224609 L 836.05469 20.642578 L 837.19727 51.865234 L 846.26172 52.263672 L 846.13867 57.447266 L 843.8418 57.447266 L 842.63477 104.51953 L 845.36133 90.361328 L 845.2168 96.46875 L 842.5332 147.95508 L 849.24023 123.43555 L 858.26367 141.14258 L 855.02148 117.19531 L 860.62891 96.46875 L 860.57227 79.517578 C 861.81107 88.225778 862.21633 97.097403 861.55078 106.21094 C 866.48408 92.688638 866.12498 75.593566 863.36328 57.447266 L 860.49805 57.447266 L 860.48242 52.886719 L 867.37891 53.189453 L 866.84375 18.224609 z M 966.8418 18.224609 L 936.05273 20.642578 L 937.19727 51.865234 L 946.26172 52.263672 L 946.13867 57.447266 L 943.8418 57.447266 L 940.67969 104.51953 L 945.51562 83.861328 L 945.2168 96.46875 L 945.94531 114.09766 L 945.02148 117.76562 L 946.26562 121.83398 L 947.3457 147.95508 L 949.78516 133.33984 L 952.25586 141.41797 L 952.28516 118.36719 L 952.45898 117.32227 L 960.62695 96.46875 L 960.56055 76.609375 C 962.50121 86.370642 963.60145 96.265799 963.57617 106.21094 C 966.61547 91.299638 966.12498 75.593566 963.36328 57.447266 L 960.49805 57.447266 L 960.48242 52.886719 L 967.37891 53.189453 L 966.8418 18.224609 z M 1066.8418 18.224609 L 1036.0527 20.642578 L 1037.1973 51.865234 L 1046.2617 52.263672 L 1046.1387 57.447266 L 1043.8418 57.447266 L 1039.25 104.51953 L 1045.5938 80.529297 L 1045.2168 96.46875 L 1046.6621 109.05469 L 1044.0117 118.01758 L 1045.8535 141.41797 L 1048.8809 128.35352 L 1051.1328 147.95508 L 1054.6543 110.23047 L 1060.627 96.46875 L 1060.5547 74.783203 C 1063.0965 85.135677 1064.853 95.644721 1064.8262 106.21094 C 1067.8652 91.299638 1066.125 75.593566 1063.3633 57.447266 L 1060.498 57.447266 L 1060.4824 52.886719 L 1067.3789 53.189453 L 1066.8418 18.224609 z M 1166.8418 18.224609 L 1136.0527 20.642578 L 1137.1953 51.865234 L 1146.2598 52.263672 L 1146.1367 57.447266 L 1143.8398 57.447266 L 1139.2246 104.51953 L 1145.5918 80.486328 L 1145.2148 96.46875 C 1145.532 102.49679 1146.2228 108.6355 1147.4316 114.92578 L 1142.3613 146.60352 L 1149.9902 125.66211 C 1152.0286 132.85786 1154.7953 140.26747 1158.5059 147.95508 C 1156.3149 136.31169 1154.6849 124.40822 1155.1328 111.54688 L 1160.627 96.46875 L 1160.5547 74.585938 C 1162.9493 84.257299 1164.5265 93.885961 1164.5 104.32031 C 1167.5393 89.409012 1166.6281 73.825766 1163.3613 57.447266 L 1160.4961 57.447266 L 1160.4805 52.886719 L 1167.377 53.189453 L 1166.8418 18.224609 z M 1266.8418 18.224609 L 1236.0527 20.642578 L 1237.1953 51.865234 L 1246.2598 52.263672 L 1246.1367 57.447266 L 1243.8398 57.447266 L 1240.1074 104.51953 L 1245.5469 82.427734 L 1245.2148 96.46875 C 1244.7873 107.44667 1245.4602 115.73239 1248.5488 123.71094 L 1247.0059 146.60352 L 1251.5137 130.00977 C 1253.3455 133.28208 1255.642 136.60705 1258.5059 140.15039 C 1256.2346 133.00703 1254.5427 127.34367 1254.1055 120.47461 L 1260.627 96.46875 L 1260.5566 75.265625 C 1262.7099 84.709058 1264.02 94.130181 1263.9941 104.32031 C 1267.0334 89.409012 1266.6281 73.825766 1263.3613 57.447266 L 1260.4961 57.447266 L 1260.4805 52.886719 L 1267.377 53.189453 L 1266.8418 18.224609 z M 2466.8438 18.224609 L 2436.0547 20.642578 L 2437.1992 51.865234 L 2446.2637 52.263672 L 2446.1406 57.447266 L 2443.8438 57.447266 C 2442.3592 73.220666 2439.6843 88.029428 2435.2656 101.42383 C 2439.5128 95.125685 2442.832 87.553439 2445.625 79.255859 L 2445.2168 96.46875 L 2441.4648 149.65625 L 2452.2324 111.86719 L 2461.498 149.65625 L 2460.6289 96.46875 L 2460.5625 76.193359 C 2464.6363 84.73809 2470.9512 91.115778 2478.9629 95.904297 C 2467.6968 85.673997 2463.5836 75.667466 2463.3652 57.447266 L 2460.5 57.447266 L 2460.4844 52.886719 L 2467.3809 53.189453 L 2466.8438 18.224609 z M 2566.8438 18.224609 L 2536.0547 20.642578 L 2537.1992 51.865234 L 2546.2617 52.263672 L 2546.1387 57.447266 L 2543.8438 57.447266 C 2542.3592 73.220666 2538.5661 86.912072 2529.709 97.888672 C 2537.0401 92.685747 2542.0131 85.250888 2545.6875 76.568359 L 2545.2168 96.46875 L 2541.4629 149.65625 L 2552.2324 111.86523 L 2561.498 149.65625 L 2560.6289 96.46875 L 2560.5527 73.486328 C 2565.857 81.630937 2575.1839 85.268834 2587.6094 83.585938 C 2572.6424 80.833637 2563.5817 75.667466 2563.3633 57.447266 L 2560.5 57.447266 L 2560.4844 52.886719 L 2567.3809 53.189453 L 2566.8438 18.224609 z M 2666.8438 18.224609 L 2636.0547 20.642578 L 2637.1973 51.865234 L 2646.2617 52.263672 L 2646.1387 57.447266 L 2643.8418 57.447266 C 2643.2628 63.599066 2643.0723 70.417241 2641.2227 75.244141 C 2639.1852 80.562041 2634.8815 84.46455 2632.0273 88.46875 C 2630.6271 90.43315 2629.1244 92.385934 2627.5273 94.365234 C 2630.0171 92.598234 2631.7577 91.226697 2633.8301 89.154297 C 2636.6027 86.381697 2642.1996 82.889669 2644.7188 78.917969 C 2645.0563 78.385793 2645.3688 77.833247 2645.6699 77.271484 L 2645.2168 96.46875 L 2641.4629 149.65625 L 2652.2305 111.86914 L 2661.498 149.65625 L 2660.6289 96.46875 L 2660.541 70.255859 C 2666.9346 80.754469 2677.8727 84.778404 2691.9551 82.871094 C 2676.9881 80.118794 2666.0504 75.131766 2663.3633 57.447266 L 2660.498 57.447266 L 2660.4824 52.886719 L 2667.3809 53.189453 L 2666.8438 18.224609 z M 1773.2285 30.794922 L 1742.3828 32.351562 L 1742.6523 63.59375 L 1754.5977 64.453125 L 1751.4297 64.574219 L 1752.0059 70.041016 L 1750.4473 70.15625 L 1750.9316 89.384766 L 1746.4746 110.04688 L 1754.5156 93.865234 L 1755.2285 100.64062 L 1743.2812 119.79102 L 1739.5 149.65625 L 1749.1816 121.66797 L 1756.6465 112.54492 L 1754.1191 123.47266 L 1760.6074 149.8457 L 1761.0273 125.83398 L 1771.1836 101.41016 L 1770.793 96.886719 L 1776.5859 89.880859 L 1772.5078 70.921875 L 1768.5703 71.212891 L 1768.0703 65.421875 L 1772.7852 65.761719 L 1773.2285 30.794922 z M 1356.0137 50.097656 L 1330.6387 67.703125 L 1347.3594 94.09375 L 1352.7227 91.273438 L 1353.4453 93.412109 L 1351.9102 92.951172 L 1352.5566 110.33008 L 1348.3633 116.60352 L 1347.2734 116.56445 L 1346.8594 118.32812 L 1346.1074 119.0625 L 1345.4941 121.34961 L 1346.1074 121.52344 L 1339.498 149.65625 L 1353.502 126.44531 L 1356.2773 126.79297 L 1357.9023 150 L 1362.9512 127.62891 L 1374.9258 129.13086 L 1382.9199 117.19531 L 1371.4766 85.482422 L 1363.416 85.646484 L 1374.0957 80.029297 L 1356.0137 50.097656 z M 1464.5273 50.574219 L 1435.7578 61.806641 L 1445.8945 91.359375 L 1452.207 89.748047 L 1453.4453 93.412109 L 1451.9102 92.951172 L 1452.5566 110.33008 L 1448.3633 116.60352 L 1447.2734 116.56445 L 1446.8594 118.32812 L 1446.1074 119.0625 L 1445.4941 121.34961 L 1446.1074 121.52344 L 1439.498 149.65625 L 1453.502 126.44531 L 1456.2754 126.79297 L 1457.9023 150 L 1462.9512 127.62891 L 1474.9238 129.13086 L 1474.9238 129.12891 L 1482.9199 117.19531 L 1471.4746 85.482422 L 1468.6934 85.539062 L 1475.166 83.886719 L 1464.5273 50.574219 z M 1571.709 52.605469 L 1541.2559 57.746094 L 1545.1641 88.744141 L 1557.8418 88.173828 L 1552.1582 89.294922 L 1553.543 93.441406 L 1551.9102 92.951172 L 1552.5566 110.33008 L 1548.3633 116.60352 L 1547.2734 116.56445 L 1546.8594 118.32812 L 1546.1074 119.0625 L 1545.4941 121.34961 L 1546.1094 121.52344 L 1539.5 149.65625 L 1553.502 126.44531 L 1556.2773 126.79297 L 1557.9023 150 L 1562.9512 127.62891 L 1574.9258 129.13086 L 1582.9199 117.19531 L 1572.2148 87.525391 L 1575.3457 87.384766 L 1571.709 52.605469 z M 1646.4883 55.240234 L 1644.9746 86.445312 L 1658.0234 88.136719 L 1652.1582 89.294922 L 1653.543 93.441406 L 1651.9102 92.951172 L 1652.5566 110.33008 L 1648.3633 116.60352 L 1647.2734 116.56445 L 1646.8594 118.32812 L 1646.1074 119.0625 L 1645.4941 121.34961 L 1646.1074 121.52344 L 1639.498 149.65625 L 1653.502 126.44531 L 1656.2754 126.79297 L 1657.9023 150 L 1662.9512 127.62891 L 1674.9258 129.13086 L 1682.9199 117.19531 L 1673.1426 90.097656 L 1674.9355 90.330078 L 1677.3711 55.447266 L 1646.4883 55.240234 z M 2238.2383 56.542969 L 2239.9746 58.974609 L 2243.5645 56.826172 C 2243.638 57.175337 2243.7125 57.528622 2243.7852 57.867188 C 2243.1972 62.581053 2242.3417 64.472548 2241.1953 64.355469 C 2239.9511 64.228374 2239.5227 60.772693 2238.2383 56.542969 z M 2343.6211 57.773438 C 2343.6436 57.875503 2343.6671 57.979063 2343.6895 58.080078 C 2343.1056 62.325692 2342.2798 64.466233 2341.1953 64.355469 C 2340.0409 64.237551 2339.5803 61.457693 2338.4961 57.884766 L 2339.9746 59.957031 L 2343.6211 57.773438 z M 2045.6953 76.207031 L 2045.6699 77.320312 C 2045.509 77.312078 2045.3425 77.277609 2045.1797 77.259766 C 2045.3548 76.911875 2045.5261 76.560645 2045.6953 76.207031 z M 1945.6523 78.029297 L 1945.5879 80.773438 C 1944.6129 81.048644 1943.6383 81.266825 1942.6777 81.451172 C 1943.8007 80.524305 1944.784 79.388758 1945.6523 78.029297 z M 1769.9023 86.605469 L 1770.6855 90.0625 L 1770.2734 90.900391 L 1769.9023 86.605469 z M 1658.3223 107.75391 L 1660.4414 114.09961 L 1657.0547 113.63281 L 1658.6484 112.4375 L 1658.3223 107.75391 z M 1558.3223 107.75586 L 1560.4414 114.09961 L 1557.0547 113.63281 L 1558.6484 112.4375 L 1558.3223 107.75586 z M 1358.332 107.87891 L 1360.4316 114.09766 L 1357.0547 113.63281 L 1358.6484 112.4375 L 1358.332 107.87891 z M 1458.3301 107.87891 L 1460.4316 114.09766 L 1457.0547 113.63281 L 1458.6484 112.4375 L 1458.3301 107.87891 z M 1355.4395 114.8457 L 1355.5801 116.86328 L 1352.8809 116.76562 L 1355.4395 114.8457 z M 1555.4395 114.8457 L 1555.5801 116.86328 L 1552.8809 116.76562 L 1555.4395 114.8457 z M 1455.4375 114.84766 L 1455.5781 116.86328 L 1452.8809 116.76562 L 1455.4375 114.84766 z M 1655.4375 114.84766 L 1655.5781 116.86328 L 1652.8809 116.76562 L 1655.4375 114.84766 z "
       transform="translate(667.24307,945.32765)"
       id="path4859" />
  </g>
</svg>
