<?xml version="1.0" encoding="UTF-8" standalone="no"?>
<!-- Created with Inkscape (http://www.inkscape.org/) -->

<svg
   xmlns:dc="http://purl.org/dc/elements/1.1/"
   xmlns:cc="http://creativecommons.org/ns#"
   xmlns:rdf="http://www.w3.org/1999/02/22-rdf-syntax-ns#"
   xmlns:svg="http://www.w3.org/2000/svg"
   xmlns="http://www.w3.org/2000/svg"
   xmlns:sodipodi="http://sodipodi.sourceforge.net/DTD/sodipodi-0.dtd"
   xmlns:inkscape="http://www.inkscape.org/namespaces/inkscape"
   width="7200"
   height="500"
   viewBox="0 0 1904.976 132.29"
   version="1.1"
   id="svg8"
   inkscape:version="0.91+devel r14527 custom"
   sodipodi:docname="field.svg">
  <sodipodi:namedview
     id="base"
     pagecolor="#ffffff"
     bordercolor="#666666"
     borderopacity="1.0"
     inkscape:pageopacity="0.0"
     inkscape:pageshadow="2"
     inkscape:zoom="1.4142136"
     inkscape:cx="3310.0705"
     inkscape:cy="582.58103"
     inkscape:document-units="px"
     inkscape:current-layer="layer1"
     showgrid="false"
     units="px"
     inkscape:window-width="1920"
     inkscape:window-height="1016"
     inkscape:window-x="0"
     inkscape:window-y="27"
     inkscape:window-maximized="1"
     showguides="false"
     inkscape:snap-global="false" />
  <defs
     id="defs2" />
  <metadata
     id="metadata5">
    <rdf:RDF>
      <cc:Work
         rdf:about="">
        <dc:format>image/svg+xml</dc:format>
        <dc:type
           rdf:resource="http://purl.org/dc/dcmitype/StillImage" />
        <dc:title></dc:title>
      </cc:Work>
    </rdf:RDF>
  </metadata>
  <g
     transform="translate(0,-164.70759)"
     id="layer1"
     inkscape:groupmode="layer"
     inkscape:label="Layer 1">
    <path
       style="opacity:1;fill:#2d3b54;fill-opacity:1;fill-rule:nonzero;stroke:none;stroke-width:2.00000024;stroke-linecap:butt;stroke-linejoin:round;stroke-miterlimit:4;stroke-dasharray:none;stroke-dashoffset:0;stroke-opacity:1"
       d="m 1097.7603,201.92361 c 68.6014,3.07344 138.1769,3.51252 209.2137,0 v 41.86941 h -209.2137 z"
       id="rect5970"
       inkscape:connector-curvature="0"
       sodipodi:nodetypes="ccccc" />
    <path
       id="path4241"
       title="3/((0.1*x)*(0.1*x)+3)+3/((0.5*x+2)*(0.5*x+2)+3)+1.5/((0.5*x-8)*(0.5*x-8)+3)"
       d="M 0,439.03019 V 212.69133 c 33.421053,-0.24133 66.842105,-0.51317 100.26316,-0.82758 33.42105,-0.31441 66.8421,-0.67122 100.26316,-1.08826 33.42105,-0.41705 66.8421,-0.89406 100.26315,-1.4578 33.42106,-0.56375 66.84211,-1.21369 100.26316,-1.99122 33.42105,-0.77752 66.84211,-1.68087 100.26316,-2.78128 33.42105,-1.10041 66.8421,-2.38765 100.26316,-4.03756 33.42105,-1.64992 66.8421,-3.58817 100.26316,-6.61614 33.42105,-3.02797 66.8421,-7.63979 100.26315,-14.93199 33.42106,-7.2922 66.84211,-10.19434 100.26316,-4.45976 33.42105,5.73457 66.84211,9.91363 100.26318,12.25358 33.421,2.33994 66.8421,3.84081 100.2631,5.18011 -0.8033,5.32978 -0.8692,18.17246 3.1834,19.33072 41.7879,11.94308 136.1073,13.55254 193.187,2.31635 6.4646,-1.27256 4.9396,-16.24279 4.156,-21.97447 33.421,-1.52187 66.8421,3.13126 100.2631,6.8317 33.4211,3.70044 66.8421,5.67381 100.2632,7.09447 33.421,1.42066 66.8421,2.3219 100.2631,3.07452 33.4211,0.75262 66.8421,1.32675 100.2632,1.81684 33.421,0.49009 66.8421,0.89113 100.2631,1.23955 33.4211,0.34842 66.8422,0.64307 100.2633,0.9024 L 1905,438.73933 Z"
       style="opacity:1;fill:#255321;fill-opacity:1;fill-rule:nonzero;stroke:none;stroke-width:2;stroke-linecap:butt;stroke-linejoin:round;stroke-miterlimit:4;stroke-dasharray:none;stroke-dashoffset:0;stroke-opacity:1"
       inkscape:connector-curvature="0"
       sodipodi:nodetypes="ccsssssssssscsscsssssccc" />
    <path
       sodipodi:nodetypes="ccccc"
       inkscape:connector-curvature="0"
       style="opacity:1;fill:#705b37;fill-opacity:1;fill-rule:nonzero;stroke:none;stroke-width:2;stroke-linecap:butt;stroke-linejoin:round;stroke-miterlimit:4;stroke-dasharray:none;stroke-dashoffset:0;stroke-opacity:1"
       d="m 1102.8947,191.93343 c 66.5827,1.96623 133.4398,1.73739 200.5264,-0.3274 0.5626,1.30766 0.9303,3.00541 0.7836,5.73168 -65.2679,3.61323 -133.8272,4.36016 -202.1133,-0.0745 0.046,-2.1457 0.3816,-3.80968 0.8033,-5.32978 z"
       title="3/((0.1*x)*(0.1*x)+3)+3/((0.5*x+2)*(0.5*x+2)+3)+1.5/((0.5*x-8)*(0.5*x-8)+3)"
       id="path4846" />
    <path
       style="fill:#255321;fill-opacity:1;fill-rule:evenodd;stroke:none;stroke-width:0.26458335px;stroke-linecap:butt;stroke-linejoin:miter;stroke-opacity:1"
       d="m 1106.8517,214.21852 -0.6682,-15.01785 3.2073,17.42648 1.1443,-14.56053 1.944,14.82673 16.6164,2.31183 -1.1464,-14.80028 4.8344,14.75884 8.3016,0.53454 -3.5143,-15.22308 7.8275,16.4317 14.5814,0.43662 1.1057,-13.65699 2.0089,14.40236 17.1516,-0.12838 1.2423,-13.00675 1.4699,13.52274 3.0821,-13.47535 1.7372,13.94332 13.6742,-0.024 1.7627,-14.18768 2.5391,13.38566 20.5122,-0.26727 1.1152,-21.28055 1.9676,22.38575 2.1158,-16.23035 2.8271,16.92605 27.7192,-4.36815 -0.4009,-13.13424 3.0569,13.56639 5.8781,-0.5256 0.9743,-13.0172 2.6504,12.9965 0.8018,-12.35933 2.7024,12.37645 0.4557,-18.13974 3.1218,17.46337 11.9419,-1.78878 -0.4548,-16.08248 4.2503,16.41509 -98.6842,11.73648 z"
       id="path5973"
       inkscape:connector-curvature="0"
       sodipodi:nodetypes="cccccccccccccccccccccccccccccccccccccccccc" />
    <path
       inkscape:connector-curvature="0"
       id="path4235"
       style="fill:#255321;fill-opacity:1;fill-rule:evenodd;stroke:none;stroke-width:0.00489552px;stroke-linecap:butt;stroke-linejoin:miter;stroke-opacity:1"
       d="m 1303.4211,191.60603 0.6152,-3.67498 1.7527,3.09206 0.4087,-1.71928 0.8884,1.79999 0.5182,-1.30077 0.5601,0.82295 0.3919,-1.50024 0.9386,1.95344 0.3312,-2.30755 1.1211,2.25789 0.496,-1.47644 0.6264,1.37476 0.4505,-1.63858 0.7632,1.4041 0.1429,-2.98363 1.6857,3.05155 0.056,-3.53302 1.9475,3.61735 0.1598,-3.13213 1.6351,2.77698 0.328,-1.95881 1.1305,1.93448 0.2967,-2.1052 1.2245,2.20467 0.1572,-2.91013 1.6429,2.69798 0.4899,-1.0346 0.6448,1.48158 0.057,-3.64022 1.9445,3.6092 0.2106,-2.8206 1.4826,2.53966 0.2772,-2.18104 1.2829,2.21939 0.4813,-1.17062 0.6707,0.90993 0.084,-2.85547 1.862,3.19357 0.3085,-2.01759 1.189,2.03463 0.1516,-2.75753 1.6596,3.10342 0.4625,-1.48559 0.7272,1.64936 0.1725,-3.02836 1.5969,2.89295 0.2567,-2.38296 1.3445,2.29376 0.2819,-2.07579 1.2687,2.01271 0.3453,-1.60185 1.0786,1.76492 0.1148,-2.80472 1.7701,2.95507 0.2834,-1.98622 1.2643,2.49524 0.3644,-1.97611 1.0214,1.99352 0.4508,-1.45494 0.762,1.31367 0.4674,-1.12913 0.7125,1.04573 0.3766,-1.38699 0.9847,2.1324 0.093,-3.39688 1.8343,3.23355 0.3734,-1.67553 0.9945,2.05756 0.1833,-2.85267 1.5646,2.50515 0.4229,-1.15188 0.8457,1.35833 0.478,-0.95526 0.6805,0.95636 0.2019,-2.18239 1.5089,2.42936 0.057,-2.94958 1.944,3.17549 0.5181,-0.69516 0.5601,1.14912 0.5071,-1.07942 0.5932,1.17079 0.3543,-1.78958 1.0517,2.25022 0.1399,-3.13159 1.695,3.07128 0.017,-3.45328 2.0644,3.33872 0.2543,-1.92767 1.3514,2.4803 0.3773,-1.68532 0.9826,2.15055 0.3056,-2.33366 1.1977,2.13965 0.1025,-2.94484 1.807,3.09777 0.2366,-2.20849 1.4047,2.70206 0.1058,-3.13639 1.7969,3.20946 0.3152,-1.95398 1.1692,2.20558 0.2548,-2.31668 1.3503,2.71943 0.4504,-1.56769 0.7634,1.40146 0.098,-2.97208 1.8212,3.24311 0.3666,-1.69751 1.0147,2.05529 0.526,-1.10998 0.5366,0.79548 0.2678,-1.92609 1.3109,2.71257 0.2437,-2.64118 1.3833,2.06512 0.3341,-1.43073 1.1127,1.6433 0.2728,-1.77038 1.2959,2.10998 0.2369,-2.10198 1.4036,2.72875 0.077,-3.31888 1.8828,3.30288 0.5249,-0.89162 0.54,1.18407 0.2334,-2.48756 1.4142,2.27378 0.3573,-1.48349 1.0425,1.73583 0.4775,-0.99275 0.6818,1.59486 0.3146,-2.26525 1.171,1.95072 0.4405,-1.17337 0.7932,1.6203 0.374,-1.8126 0.9923,2.14551 0.5095,-1.33796 0.586,1.13603 0.3927,-1.59277 0.9364,1.4809 0.074,-2.90181 1.8914,3.61533 0.094,-3.31734 1.8317,3.30064 0.4589,-1.32083 0.7377,1.39596 0.487,-1.13935 0.6532,1.48014 0.4662,-1.47134 0.7159,0.99745 0.2461,-1.96265 1.3763,2.37928 0.3162,-1.8807 1.1659,1.91769 0.151,-2.58963 1.6616,2.55606 0.173,-2.28119 1.5957,2.61111 0.037,-3.11933 2.0041,3.2782 0.2705,-1.94934 1.3028,2.04385 0.027,-3.10258 2.0329,3.86441 0.5178,-1.27767 0.5615,0.95711 0.1231,-2.80581 1.7451,2.91504 0.1343,-2.70581 1.7117,3.11656 0.3428,-1.94121 1.0865,1.87045 0.2078,-2.4199 1.4911,2.20343 0.012,-3.03455 2.0789,3.91076 0.2948,-2.35699 1.2303,1.78051 0.1223,-2.51455 1.7477,3.33152 0.3311,-2.16391 1.1211,2.03338 0.4561,-1.31099 0.746,1.42707 0.3201,-2.01038 1.154,2.16024 0.4836,-1.24973 0.6634,0.8978 0.1937,-2.24703 1.5334,2.40544 0.1306,-2.59756 1.7229,3.14686 0.1959,-2.69892 1.5268,2.47119 0.4386,-1.15896 0.7986,1.05388 0.2768,-1.77079 1.2838,2.51619 0.054,-3.51492 1.9522,3.26905 0.052,-3.15275 1.9588,3.00038 0.4543,-0.88793 0.7515,1.46165 0.443,-1.44365 0.7855,1.3051 0.026,-3.28847 2.0352,3.21844 0.4531,-0.98759 0.7551,1.44139 0.3509,-1.87606 1.0621,2.13344 0.4156,-1.73107 0.8676,1.78471 0.2802,-2.3805 1.2738,2.5155 0.433,-1.67278 0.8156,1.05906 0.1798,-2.241 1.575,2.87451 0.4435,-1.47412 0.7838,1.28718 0.2795,-2.03242 1.2761,2.08411 0.3637,-1.5844 1.0234,2.05468 0.442,-1.59431 0.7886,1.57906 0.4529,-1.46097 0.756,0.97886 0.2027,-2.15418 1.5063,2.61674 0.2368,-2.36134 1.404,2.13702 0.5059,-0.7232 0.597,1.3221 0.088,-3.33564 1.8502,3.46282 0.4769,-1.44299 0.6837,0.98829 0.183,-2.38824 1.5656,2.96672 0.3102,-2.2535 1.1839,1.8389 0.3273,-1.68428 1.1327,1.9898 0.407,-1.52702 0.8934,1.56526 0.4115,-1.48344 0.8799,1.16771 0.2477,-1.92094 1.3713,2.22008 0.3484,-1.64903 1.0693,1.5176 0.5181,-0.61367 0.5601,0.64046 0.2637,-1.8547 1.3235,2.62275 0.3456,-2.14818 1.0778,2.09752 0.1117,-3.19598 1.7793,3.13837 0.405,-1.60452 0.8993,1.63042 0.1664,-2.75989 1.6154,2.59073 0.2508,-2.09912 1.3622,2.28859 0.4866,-1.05391 0.6549,1.08383 0.1411,-2.75129 1.6912,3.10534 0.1023,-3.22545 1.8076,3.03339 0.3415,-1.772 1.0899,2.16732 0.019,-3.71116 2.0567,3.76239 0.4778,-1.40787 0.681,1.12562 0.2335,-2.29467 1.414,2.32583 0.4515,-1.18266 0.7601,1.4157 0.5255,-1.00367 0.5379,1.19142 0.1076,-3.22686 1.7917,3.23392 0.2001,-2.70617 1.5142,2.56638 0.4915,-1.05878 0.64,1.26294 0.2501,-2.42152 1.3643,2.01102 0.2866,-1.77352 1.2548,1.78458 0.3547,-1.39298 1.0505,1.90798 0.2498,-2.38025 1.3649,2.13307 0.2569,-2.04342 1.3437,2.06415 0.024,-3.16649 2.0419,3.27571 0.1308,-2.67825 1.7222,2.74513 0.277,-1.95831 1.2835,2.03526 0.4156,-1.29647 0.8677,1.83128 0.331,-2.21065 1.1216,2.25681 0.2428,-2.64892 1.3862,2.14206 0.3411,-1.6026 1.0913,1.74299 0.3365,-1.72136 1.1051,2.12789 0.4649,-1.44551 0.7199,1.33726 0.4797,-1.22722 0.6754,1.12292 0.2696,-2.132 1.3057,2.09982 0.3889,-1.45978 0.9478,2.00601 0.1764,-3.02228 1.5853,2.41789 0.054,-2.97458 1.9526,3.04335 0.4562,-0.98521 0.7458,1.46334 0.4447,-1.48597 0.7803,1.20228 0.1434,-2.66518 1.6843,3.06385 0.4617,-1.42961 0.7294,1.5893 0.2386,-2.66516 1.3988,2.75919 0.2037,-2.88725 1.5036,2.60863 0.057,-3.29104 1.9438,3.0507 0.1065,-2.74949 1.7949,3.04323 0.15,-2.77585 1.6646,2.58851 0.065,-2.96317 1.9198,2.93752 0.031,-3.05363 2.0215,3.41771 0.4673,-1.19417 0.7127,1.49238 0.1719,-2.93072 1.5986,2.84464 0.3223,-2.05133 1.1476,2.00319 0.3039,-2.05774 1.2029,2.28969 0.1098,-3.21728 1.7853,2.86703 0.2537,-2.1034 1.3534,2.07391 0.026,-3.16684 2.0365,3.24138 0.4089,-1.28546 0.8877,1.50937 0.2874,-2.08249 1.2521,2.52325 0.2472,-2.68646 1.373,1.99836 0.4241,-1.07925 0.8422,1.21868 0.4503,-1.05802 0.7635,1.30048 0.2828,-2.10605 1.2664,2.52194 0.5036,-1.38637 0.6037,0.99545 0.3194,-1.88661 1.1565,1.93615 0.1085,-2.95139 1.789,3.10203 0.1527,-2.83874 1.6565,2.71879 0.014,-3.36697 2.0719,3.72634 0.1482,-3.01301 1.6703,2.78463 0.3906,-1.53687 0.9427,1.30168 0.3975,-1.23747 0.9218,1.41744 0.4779,-0.98809 0.6805,1.50017 0.2664,-2.5284 1.3154,1.92239 0.316,-1.64065 1.1663,1.65953 0.093,-2.7375 1.835,2.88676 0.2285,-2.17202 1.4291,2.15396 0.4706,-0.9134 0.7027,1.57126 0.1575,-3.10536 1.6418,2.46522 0.1838,-2.29685 1.5632,2.97993 0.4093,-1.82047 0.8864,1.2137 0.2464,-1.99869 1.3752,2.63686 0.522,-1.23212 0.5488,0.73871 0.5281,-0.68636 0.5304,0.54806 0.1966,-2.17652 1.5244,2.20889 0.1659,-2.3286 1.6172,3.02907 0.1689,-2.97734 1.6076,2.92216 0.2999,-2.23513 1.2147,1.98225 0.02,-3.34856 2.0555,3.50297 0.4892,-1.12415 0.647,1.24611 0.09,-3.21014 1.8432,3.25426 0.1178,-3.08094 1.761,2.80282 0.4149,-1.28746 0.8699,1.50972 0.3008,-2.05392 1.2121,1.80714 0.093,-2.81335 1.8353,2.80499 0.4376,-1.05315 0.8018,1.5721 0.4015,-1.72861 0.9099,1.32918 0.3698,-1.46338 1.0052,1.35861 0.4332,-1.01769 0.815,1.19512 0.1327,-2.66929 1.7165,2.56143 0.1907,-2.23913 1.5424,2.77963 0.1143,-3.12939 1.7717,3.17862 0.296,-2.23971 1.2266,1.74789 0.1073,-2.66077 1.7924,3.18546 0.2236,-2.57358 1.444,2.66218 0.055,-3.47139 1.9487,2.92893 0.1156,-2.59372 1.7677,3.05969 0.269,-2.26324 1.3075,2.0971 0.03,-3.26239 2.0252,3.31896 0.4006,-1.43634 0.9128,1.95983 0.3231,-2.32362 1.145,2.24643 0.2576,-2.54895 1.3418,2.03758 0.2665,-1.96632 1.3149,2.16499 0.01,-3.41628 2.0838,3.4436 0.082,-3.05215 1.8687,2.86976 0.4525,-0.99127 0.7569,1.03033 0.063,-2.95018 1.9243,3.34331 0.3917,-1.67488 0.9392,1.53472 0.4921,-1.01368 0.6383,1.44914 0.1737,-3.01815 1.5935,2.95367 0.17,-2.94409 1.6045,2.67058 0.2107,-2.43975 1.4822,2.28259 0.2285,-2.16818 1.4291,2.79048 0.4342,-1.7394 0.8119,1.37428 0.068,-3.17882 1.9094,3.33702 0.031,-3.49408 2.0222,3.37788 0.5174,-0.92112 0.5622,0.69701 0.4971,-0.78252 0.6235,0.97364 0.3377,-1.75058 1.1012,2.02473 0.3892,-1.74699 0.9469,2.02538 0.2791,-2.5547 1.2774,2.55053 0.086,-3.49088 1.8571,2.75951 0.2857,-1.73436 1.2573,1.94509 0.5003,-0.85302 0.6136,0.91338 0.1915,-2.43703 1.5402,2.45909 0.4672,-1.05916 0.7128,1.07689 0.2822,-1.98241 1.2679,2.14494 0.5162,-0.95666 0.5661,0.77162 0.4682,-0.99522 0.71,1.60962 0.1314,-3.272 1.7202,3.04198 0.1318,-3.0146 1.7193,3.03598 0.099,-3.17509 1.8186,2.97882 0.2683,-2.10632 1.3096,1.96819 0.2264,-2.1554 1.4354,2.44369 0.014,-3.47898 2.072,3.57911 0.1984,-2.63197 1.5192,2.3228 0.1819,-2.38179 1.5686,2.33368 0.4071,-1.18775 0.8933,1.82413 0.3502,-2.09002 1.0638,2.11662 v -3.8387 l 2.111,3.29234 0.1169,-2.68733 1.7638,3.07399 0.5188,-1.04506 0.5581,1.16612 0.5141,-1.17566 0.5723,1.09282 0.4294,-1.50099 0.8263,1.22445 0.1074,-2.81419 1.7924,3.39309 0.142,-3.19603 1.6885,2.98921 0.4148,-1.60543 0.8703,1.51398 0.083,-3.15378 1.8665,2.86671 0.3359,-1.57913 1.1068,1.76531 0.051,-3.16562 1.96,3.33121 0.3763,-1.68647 0.9858,1.59333 0.025,-3.32729 2.039,3.69749 0.2247,-2.67707 1.4405,2.39045 0.5258,-0.86789 0.5371,1.05462 0.4288,-1.5256 0.8281,1.19449 0.3958,-1.34363 0.9271,1.21944 0.023,-3.06605 2.0474,3.71649 0.2945,-2.33375 1.2308,2.2272 0.5215,-1.0769 0.5499,1.19554 0.2289,-2.64247 1.4278,2.20952 0.2512,-2.07871 1.361,1.94234 0.3107,-1.62627 1.1823,2.07961 0.3903,-1.6651 0.9436,1.40315 0.1117,-2.77729 1.7794,3.41399 0.06,-3.64997 1.9345,3.41692 0.013,-3.62958 2.0763,3.29652 0.3257,-1.71104 1.1372,2.13407 0.3007,-2.24245 1.2124,2.10337 0.1572,-2.80215 1.643,2.99421 0.043,-3.5441 1.9858,3.72682 0.2548,-2.64713 1.3503,2.66715 v -3.91022 l 2.1086,3.33887 v -3.30713 l 2.1035,3.41144 0.4084,-1.36924 0.8895,1.28209 0.2298,-2.15859 1.4251,2.32158 0.2176,-2.36453 1.4617,2.41222 0.4897,-1.0366 0.6455,1.3642 0.3861,-1.86842 0.9562,1.40611 v -3.29673 l 2.1016,3.57315 0.2684,-2.23325 1.3095,2.13493 0.4548,-1.18745 0.7499,0.94952 0.5243,-0.59046 0.5417,0.87555 0.5236,-0.86761 0.5436,0.89949 0.1748,-2.62923 1.5904,2.75376 0.1253,-2.9815 1.7385,3.00095 0.089,-3.16537 1.849,3.3731 0.5166,-1.21735 0.5649,0.67008 0.3278,-1.60066 1.1311,2.08349 0.091,-3.24987 1.8413,3.09512 0.087,-3.0963 1.854,3.08426 0.2685,-2.15822 1.309,1.88678 0.324,-1.59403 1.1426,2.02954 0.1752,-2.75686 1.5887,2.75105 0.1993,-2.61367 1.5167,2.25108 0.21,-2.18074 1.4847,2.57655 0.289,-2.16528 1.2475,2.26538 0.2998,-2.19615 1.215,1.83055 0.01,-3.2671 2.0875,3.55963 0.3225,-1.97518 1.1473,2.01406 0.486,-1.18314 0.6563,0.9603 0.032,-3.21526 2.0185,3.57308 0.528,-1.07839 0.5305,1.32085 0.4182,-1.85817 0.8598,1.72664 0.1551,-3.02767 1.6492,2.77244 0.2385,-2.33895 1.399,2.7715 0.2895,-2.50113 1.2457,2.21988 0.1602,-2.85147 1.6338,2.89254 0.1001,-3.17801 1.8156,2.77066 0.097,-2.76506 1.8229,2.95737 0.2395,-2.22936 1.396,2.27611 0.1982,-2.46721 1.5199,2.41104 0.1892,-2.44038 1.5469,2.23501 0.027,-3.02829 2.0333,3.29928 0.3311,-1.76362 1.1212,1.78101 0.3827,-1.51097 0.9669,1.801 0.2582,-2.40888 1.3396,2.36092 0.3524,-1.87781 1.0576,2.04098 0.2068,-2.75472 1.4942,2.45037 0.3947,-1.49738 0.9306,1.43264 0.063,-3.07457 1.9244,3.36029 0.1809,-2.75621 1.5719,2.30554 0.3527,-1.43222 1.056,1.4258 0.077,-2.78913 1.8828,3.09314 0.1702,-2.61162 1.6036,2.75846 0.323,-1.98165 1.1457,2.07296 0.5121,-1.11601 0.5783,0.91452 0.3109,-1.90924 1.1817,2.02427 0.2278,-2.42661 1.431,2.52761 0.1909,-2.69756 1.5416,2.79251 0.4663,-1.40451 0.716,1.6323 0.3979,-1.96278 0.9208,1.61562 0.4633,-1.27835 0.7246,0.97995 0.1733,-2.41786 1.5948,2.64115 0.2353,-2.31602 1.4082,2.67055 0.4648,-1.51205 0.72,1.03408 0.4777,-0.96053 0.6816,0.88842 0.2157,-2.18675 1.4676,2.14157 0.3158,-1.62756 1.1669,2.02773 0.3519,-1.83658 1.0591,1.56749 0.3832,-1.3994 0.9651,1.44056 0.022,-3.23234 2.0484,3.13942 0.3208,-1.63179 1.1523,2.30613 0.064,-3.57511 1.9219,3.53396 0.2108,-2.78639 1.4822,2.17125 0.3338,-1.5435 1.113,2.21401 0.084,-3.45156 1.8634,2.96781 0.3905,-1.42124 0.9431,1.80925 0.2523,-2.4888 1.3578,1.96419 -0.606,14.83809 -599.4432,-2.64344 z M 0,212.69133 l 0.24818699,-2.73362 1.37207891,2.36546 0.05075,-3.36582 1.9643819,3.6199 0.417648,-1.79743 0.8636952,1.58302 0.5152839,-1.1035 0.57079,1.15504 0.3860601,-1.81007 0.9584609,1.70411 0.2492351,-2.39913 1.368932,2.01837 0.327384,-1.63901 1.134488,1.69908 0.243092,-2.13201 1.387365,2.25497 0.07431,-3.11228 1.89371,3.22364 0.41923,-1.51118 0.858949,1.66402 0.41809,-1.67933 0.862371,1.27671 0.462513,-1.0639 0.7291,1.3276 0.405214,-1.62354 0.900997,1.1549 0.06053,-2.89085 1.935049,3.20698 0.230917,-2.36895 1.423888,2.07816 0.314016,-1.6747 1.174595,1.78211 0.25648,-2.08167 1.347199,2.0425 0.406691,-1.30265 0.896561,1.80808 0.32954,-2.20454 1.128026,1.94552 0.475752,-1.22464 0.689379,1.33703 0.223004,-2.61183 1.447623,2.29501 0.02946,-3.27736 2.028275,3.23152 0.149459,-2.64675 1.668261,2.76324 0.06148,-3.2182 1.93219,3.55942 0.483026,-1.4642 0.667564,1.48197 0.01413,-3.83936 2.074241,3.35823 0.442428,-1.23007 0.789361,1.24713 0.438478,-1.27681 0.801206,1.27783 0.261143,-2.17593 1.3332,2.36685 0.274259,-2.31412 1.293873,2.21263 0.185436,-2.67021 1.560331,2.67575 0.377969,-1.72578 0.982735,1.75643 0.06852,-3.31736 1.911066,3.05542 0.191062,-2.45807 1.543461,2.85652 0.445394,-1.59711 0.780464,1.21933 0.155396,-2.6819 1.650442,3.11287 0.359953,-2.10348 1.036778,1.8583 0.22715,-2.53516 1.435198,2.46382 0.04189,-3.40568 1.990983,3.58381 0.335937,-2.12827 1.108831,1.53319 0.169329,-2.37993 1.608651,2.40399 0.502245,-0.75174 0.609901,1.06874 0.526168,-0.95844 0.538135,0.64335 0.427254,-1.14792 0.834874,1.24035 0.211056,-2.3341 1.483479,2.51658 0.124037,-2.96708 1.744527,3.20861 0.291795,-2.38462 1.241253,1.96482 0.332744,-1.77311 1.118406,2.26624 0.515248,-1.36485 0.570895,0.71874 0.405609,-1.27745 0.899816,1.90079 0.361998,-2.13074 1.03064,2.09431 0.526868,-1.28085 0.536034,1.27767 0.523884,-1.30206 0.54499,0.59353 0.152332,-2.46413 1.659644,2.459 0.346386,-1.50322 1.077481,2.0924 0.446243,-1.60501 0.777913,1.24431 0.446852,-1.25229 0.776079,1.30007 0.172453,-2.68563 1.599283,2.81718 0.497506,-1.20505 0.62412,1.30436 0.278516,-2.41156 1.281099,1.9113 0.428124,-1.17615 0.832263,1.34343 0.167133,-2.66238 1.615245,3.03477 0.266009,-2.55594 1.318616,2.38669 0.08639,-3.30112 1.857457,2.93282 0.289723,-1.93239 1.247466,1.94175 0.127252,-2.77004 1.734883,2.80995 0.0246,-3.34162 2.0428,3.10346 0.12604,-2.61493 1.73852,2.59692 0.37238,-1.38061 0.99951,1.80563 0.24048,-2.47949 1.3952,2.75185 0.32831,-2.32752 1.1317,1.6755 0.26584,-2.00256 1.31914,2.20488 0.15523,-2.77432 1.65096,2.82288 0.059,-3.32262 1.93972,3.19449 0.35403,-1.73585 1.05455,1.98119 0.51268,-1.20018 0.5786,0.73924 0.20043,-2.31424 1.5153,2.50304 0.19154,-2.56463 1.54202,2.23238 0.20576,-2.17841 1.4994,2.22954 0.28734,-1.83769 1.25457,1.91947 0.13653,-2.69057 1.70703,2.55848 0.1269,-2.62535 1.73597,2.96528 0.52637,-0.9827 0.53752,1.08638 0.30799,-2.19139 1.1927,2.29124 0.0781,-3.45842 1.88243,3.01301 0.47896,-1.02453 0.67976,1.38666 0.13361,-3.12888 1.7158,2.84781 0.22533,-2.40738 1.44063,2.11351 0.0479,-3.02006 1.97308,3.16162 0.35043,-1.66665 1.06532,2.04598 0.20228,-2.80317 1.50979,2.21346 0.36709,-1.40573 1.01538,1.51763 0.30137,-1.86155 1.21253,2.40993 0.4867,-1.49731 0.6565,0.80057 0.1,-2.75068 1.81676,2.99054 0.46983,-1.15778 0.70717,1.60604 0.0297,-3.82388 2.02743,3.42569 0.006,-3.56642 2.09837,3.84612 0.013,-3.83442 2.07765,3.5912 0.31653,-2.09309 1.16706,1.63898 0.25164,-1.98041 1.36171,2.06543 0.28873,-1.89739 1.25044,1.87066 0.49687,-0.84474 0.62603,1.19152 0.18554,-2.76415 1.56004,2.37056 0.16837,-2.47609 1.61152,3.06495 0.37075,-2.07079 1.0044,1.94926 0.065,-3.49698 1.92166,3.49198 0.47224,-1.47364 0.69991,1.4651 0.46515,-1.514 0.72119,0.92811 0.33619,-1.58791 1.10807,2.06103 0.26445,-2.43709 1.32327,2.39221 0.24175,-2.52428 1.39138,2.05255 0.45186,-1.01846 0.76105,1.09053 0.493,-0.89843 0.63762,1.22408 0.0384,-3.51565 2.00147,3.21434 0.15906,-2.63346 1.63945,3.09398 0.14508,-3.18523 1.68139,2.9111 0.39034,-1.70358 0.94564,1.29897 0.20037,-2.26693 1.51553,2.66481 0.29466,-2.21271 1.23266,1.90464 0.26968,-2.04816 1.30759,2.30258 0.0151,-3.59741 2.07123,3.79106 0.0852,-3.46513 1.861,3.48035 0.10424,-3.40873 1.80392,2.79229 0.43441,-1.16079 0.81342,1.18029 0.082,-2.96193 1.87059,3.26493 0.0578,-3.41039 1.94318,2.9242 0.34061,-1.53159 1.09479,2.07379 0.36564,-1.96633 1.01972,1.90482 0.31447,-2.1787 1.17324,2.22158 0.14644,-3.0826 1.67731,2.55546 0.17395,-2.44071 1.59481,2.66231 0.48503,-1.12544 0.66155,1.23911 0.30433,-2.1596 1.20366,1.64978 0.28004,-1.79088 1.27652,1.87601 0.12594,-2.66858 1.73882,2.55622 0.10081,-2.70638 1.8142,3.32086 0.52483,-1.22022 0.54216,0.68865 0.069,-2.98789 1.90974,2.86232 0.12561,-2.60435 1.73979,2.83222 0.34616,-1.75128 1.07817,2.14329 0.41111,-1.83655 0.88329,1.45289 0.16904,-2.68376 1.60951,2.36838 0.38188,-1.32518 0.97099,1.53221 0.345,-1.73536 1.08165,1.47135 0.34399,-1.49572 1.08469,1.90534 0.25792,-2.35623 1.34289,2.409 0.46569,-1.38911 0.71956,0.99539 0.35314,-1.57594 1.05723,2.00377 0.48191,-1.37754 0.67091,0.95635 0.16162,-2.57811 1.63178,2.80072 0.32861,-1.98833 1.13081,1.72587 0.0905,-2.93986 1.84502,3.19799 0.36688,-1.83952 1.01599,1.67941 0.48313,-1.116 0.66725,0.76451 0.50237,-0.68429 0.60955,0.71274 0.45637,-0.9591 0.74752,1.48904 0.45105,-1.53287 0.7635,1.08057 0.0105,-3.30682 2.08508,3.77889 0.17932,-2.96253 1.57867,2.28042 0.28225,-1.78968 1.2699,2.06255 0.20922,-2.45123 1.48897,2.85339 0.27928,-2.52681 1.27878,2.03102 0.20791,-2.41175 1.4929,2.23998 0.28403,-1.88332 1.26456,1.76692 0.0699,-2.86357 1.90691,2.88018 0.0145,-3.18742 2.07311,3.51954 0.44257,-1.40407 0.78894,1.57654 0.31135,-2.25323 1.18265,1.91479 0.50672,-0.95746 0.59649,1.22196 0.14603,-3.04758 1.67857,2.50335 0.33438,-1.58651 1.11351,1.60508 0.20312,-2.28561 1.50734,2.316 0.49584,-0.87393 0.62904,0.73532 0.2703,-1.88406 1.30575,1.91259 0.40391,-1.2669 0.90494,1.89127 0.1379,-3.2458 1.70295,2.75533 0.0588,-3.18067 1.94011,3.23185 0.1084,-3.01476 1.79144,2.78426 0.518,-0.75989 0.56265,1.23306 0.46852,-1.4984 0.71111,1.60701 0.36433,-2.14851 1.02369,1.68949 0.32752,-1.89643 1.13412,1.76223 0.28485,-1.9997 1.26212,1.81047 0.36923,-1.4122 1.009,1.83768 0.0233,-3.59496 2.04655,3.80479 0.13565,-3.27526 1.70967,2.48252 0.39946,-1.18951 0.91825,1.89778 0.31223,-2.35704 1.1799,2.13247 0.36652,-1.88494 1.0171,1.42792 0.0404,-3.08682 1.99533,3.65115 0.46452,-1.5577 0.72307,1.03873 0.029,-3.24368 2.02967,3.78089 0.0803,-3.55834 1.87574,3.03528 0.037,-3.28559 2.00552,3.25735 0.32046,-1.8704 1.15526,2.28004 0.41208,-1.84589 0.88047,1.45491 0.19402,-2.5712 1.53459,2.50957 0.29387,-2.03857 1.23503,2.21386 0.14539,-2.98556 1.68045,2.95055 0.21984,-2.6091 1.45712,2.38719 0.0591,-3.22323 1.93929,3.62635 0.15745,-3.16832 1.64423,2.90091 0.27347,-2.351 1.29623,2.00661 0.009,-3.36368 2.09069,3.66042 0.2846,-2.3136 1.26284,2.15124 0.16307,-2.78924 1.62745,2.9394 0.48982,-1.33234 0.64719,1.34584 0.18521,-2.8953 1.56102,2.60426 0.41459,-1.48517 0.8728,1.79777 0.49204,-1.43302 0.64052,1.45214 0.0154,-3.865 2.07028,3.5847 0.0483,-3.45877 1.9717,3.64753 0.16812,-3.08425 1.61229,2.74486 0.29763,-2.12849 1.22374,2.38887 0.32159,-2.29751 1.15182,1.60852 0.32287,-1.63037 1.14807,1.77847 0.22851,-2.28018 1.43109,2.46055 0.0713,-3.28186 1.90283,3.36275 0.0805,-3.35456 1.87506,3.04682 0.44473,-1.25687 0.78241,1.59627 0.0265,-3.71988 2.03719,3.81374 0.0941,-3.51491 1.83425,2.91843 0.003,-3.41591 2.10868,3.64643 0.24349,-2.47971 1.38621,2.62502 0.40968,-1.82341 0.88759,1.78075 0.0566,-3.57946 1.94681,2.95433 0.25246,-2.01179 1.35925,1.91722 0.19137,-2.25679 1.5425,2.91745 0.4409,-1.70039 0.79398,1.64812 0.0339,-3.71679 2.01486,3.24054 0.52029,-0.84113 0.55575,1.29049 0.0768,-3.53972 1.8863,3.15908 0.18676,-2.64799 1.55634,2.39661 0.22773,-2.22767 1.43344,2.57882 0.52355,-1.12862 0.54596,0.77164 0.0596,-3.1242 1.93789,3.03035 0.0617,-3.06251 1.93157,3.0864 0.45568,-1.15091 0.74958,1.57314 0.1665,-3.05144 1.61717,2.54149 0.52696,-0.77011 0.53578,0.68077 0.38703,-1.40674 0.95558,1.61638 0.23844,-2.39196 1.40132,2.44318 0.0426,-3.46294 1.98887,3.54213 0.20982,-2.7474 1.4872,2.7189 0.46116,-1.49432 0.73313,1.38099 0.2015,-2.71195 1.51213,2.56939 0.18592,-2.68623 1.55885,2.51358 0.35464,-1.70568 1.05269,1.70878 0.007,-3.48484 2.09431,3.52745 0.085,-3.18608 1.86166,2.87734 0.1366,-2.66296 1.70678,2.66541 0.38872,-1.44183 0.95048,1.95912 0.44243,-1.72054 0.78935,1.22498 0.16425,-2.65128 1.62389,2.61286 0.0786,-3.08506 1.88072,3.2624 0.0167,-3.61981 2.06639,3.52323 0.10131,-3.1481 1.81269,3.05323 0.0515,-3.34932 1.96202,3.0406 0.0302,-3.19674 2.02616,3.69639 0.33085,-2.2357 1.1241,1.9405 0.17695,-2.74934 1.58576,3.01255 0.35866,-2.14298 1.04065,1.783 0.28392,-2.19316 1.26488,2.15478 0.0867,-3.18417 1.85645,2.77318 0.42794,-1.10718 0.83279,1.30764 0.39713,-1.49426 0.92526,1.49259 0.3425,-1.8006 1.0892,2.00808 0.10036,-3.2612 1.81557,2.7095 0.0899,-2.81085 1.84688,2.76885 0.30601,-1.73258 1.19858,2.08339 0.33958,-1.95363 1.0979,2.10092 0.0122,-3.78405 2.08028,3.8713 0.2427,-2.76708 1.38852,2.35331 0.51974,-1.00371 0.55742,1.13359 0.34043,-2.06334 1.09536,1.61744 0.10827,-2.82256 1.79184,2.90919 0.0493,-3.25632 1.96874,3.49348 0.35105,-2.03083 1.0635,1.81339 0.18925,-2.66505 1.54894,2.68002 0.11914,-3.07971 1.75921,2.78243 0.31695,-1.83935 1.16581,2.29612 0.50787,-1.37703 0.59305,1.26049 0.32374,-2.21652 1.14539,1.66204 0.0114,-3.27311 2.08235,3.57673 0.18174,-2.77892 1.57145,2.37234 0.47145,-0.96488 0.70228,1.20997 0.13991,-2.91021 1.69691,2.88239 0.25016,-2.38019 1.36618,2.53341 0.10248,-3.32218 1.80919,2.96307 0.0523,-3.27063 1.95988,2.93798 0.41161,-1.18903 0.88179,1.51032 0.46195,-1.29483 0.73077,1.4185 0.40484,-1.74063 0.90216,1.27588 0.0199,-3.25112 2.05748,3.43113 0.26346,-2.26657 1.32624,2.38196 0.0611,-3.44721 1.93342,3.28231 0.35925,-1.84218 1.03884,1.61644 0.27453,-2.08475 1.29308,2.03467 0.22836,-2.31427 1.43154,2.52089 0.0342,-3.54838 2.01414,3.76605 0.52778,-1.34559 0.53329,0.77142 0.24924,-2.20546 1.36893,2.0831 0.0359,-3.20639 2.00887,3.3446 0.18473,-2.65976 1.56251,2.25965 0.39832,-1.23977 0.92172,1.52355 0.27011,-2.21016 1.30631,2.36622 0.28217,-2.35555 1.27012,2.11605 0.29374,-2.10736 1.23543,1.95024 0.12684,-2.83917 1.73614,2.6319 0.36433,-1.49691 1.02369,1.71737 0.0663,-3.26201 1.91765,3.17564 0.29149,-2.1073 1.24215,2.26913 0.25878,-2.4842 1.34031,1.9987 0.27212,-1.98441 1.30028,2.06213 0.0101,-3.43642 2.08825,3.17175 0.22351,-2.16456 1.44609,2.42359 0.0473,-3.36689 1.97472,3.30572 0.0588,-3.31669 1.94032,3.27783 0.35949,-1.83231 1.03816,1.45506 0.13313,-2.64281 1.71729,2.86407 0.14618,-2.86237 1.67809,2.49416 0.0588,-2.99778 1.94027,2.96413 0.15822,-2.53364 1.64193,2.57634 0.37906,-1.52813 0.97953,1.27745 0.50556,-0.68852 0.59991,1.34062 0.34075,-2.2101 1.09436,2.03121 0.13901,-3.09871 1.69958,2.81517 0.12917,-2.9314 1.72924,2.81498 0.0421,-3.3208 1.99027,3.48866 0.27765,-2.37683 1.28364,2.14619 0.24955,-2.34538 1.36796,2.19071 0.10488,-2.97966 1.80205,2.84515 0.28848,-1.9915 1.25119,2.35135 0.26294,-2.53789 1.3278,2.23839 0.0249,-3.49776 2.04187,3.50257 0.17396,-2.83057 1.59473,2.56707 0.2794,-2.10384 1.27847,2.21807 0.0717,-3.32451 1.90136,3.56359 0.37797,-2.09743 0.98271,1.36467 0.24725,-2.07681 1.37491,1.96501 0.4899,-0.80616 0.64698,0.90996 0.40568,-1.37944 0.89965,1.45358 0.48021,-1.12975 0.67598,0.97146 0.10374,-2.91522 1.80541,2.70501 0.17193,-2.43831 1.60089,2.85732 0.2681,-2.44438 1.31229,1.87826 0.20677,-2.25213 1.49636,2.13001 0.51522,-0.64513 0.57101,0.8338 0.34922,-1.71553 1.06901,1.47774 0.14854,-2.54845 1.67106,2.86614 0.49505,-1.19508 0.63145,0.82442 0.5,-0.84693 0.61666,1.42901 0.25593,-2.7069 1.34885,2.06983 0.22267,-2.30577 1.44863,2.71136 0.18534,-2.97116 1.56057,2.5061 0.22127,-2.4003 1.45284,2.41263 0.2728,-2.22547 1.29822,2.33113 0.10774,-3.23247 1.79345,2.78787 0.47749,-1.00654 0.68415,1.04133 0.39084,-1.53002 0.94418,1.35076 0.46926,-1.01452 0.70883,1.09644 0.22752,-2.3688 1.43407,2.3838 0.49098,-1.12954 0.6437,1.42969 0.0204,-3.85497 2.05515,3.74274 0.13219,-3.27411 1.72006,2.76068 0.47841,-1.09899 0.6814,1.21891 0.0902,-3.23189 1.84608,2.99905 0.0513,-3.28573 1.96268,3.58471 0.35446,-2.14968 1.05324,1.87959 0.22018,-2.62418 1.45609,2.05921 0.0756,-2.86905 1.88969,3.0837 0.15007,-2.80284 1.66643,3.12473 0.51193,-1.38611 0.58081,0.63635 0.30932,-1.71286 1.18868,2.20342 0.29363,-2.35647 1.23574,2.16689 0.17238,-2.85509 1.59954,2.67776 0.49157,-1.1544 0.64195,1.10328 0.35125,-1.86898 1.06293,2.13886 0.31644,-2.38624 1.16735,1.9343 0.19642,-2.61613 1.52737,2.18095 0.29273,-1.78299 1.23842,2.40835 0.0909,-3.50729 1.84394,2.92153 0.33538,-1.78737 1.11044,1.5934 0.30789,-1.80857 1.19299,1.65146 0.13391,-2.61018 1.71493,2.67833 0.49971,-0.92867 0.61753,1.25771 0.30464,-2.30366 1.20272,1.97382 0.12531,-2.96205 1.74075,2.93548 0.35901,-1.85621 1.03961,1.42061 0.51324,-0.71808 0.57697,0.9549 0.004,-3.58872 2.10402,3.80635 0.0403,-3.74195 1.99567,3.53994 0.30705,-2.3064 1.19548,1.62532 0.0593,-2.96384 1.9386,3.24555 0.44238,-1.4235 0.78951,1.50281 0.19356,-2.83286 1.53592,2.59071 0.46677,-1.31 0.7163,1.04469 0.30397,-1.93807 1.20466,1.69672 0.005,-3.29938 2.10166,3.44019 0.48307,-1.14763 0.66741,1.17104 0.46476,-1.33344 0.72235,1.07008 0.37695,-1.58696 0.98583,1.64211 0.32376,-1.99501 1.14534,2.17373 0.007,-3.86611 2.09439,3.31556 0.11954,-2.87973 1.758,3.1101 0.29048,-2.36352 1.24517,2.11344 0.19039,-2.71857 1.54544,2.89418 0.0344,-3.79629 2.0133,3.57405 0.0789,-3.48271 1.87986,3.25996 0.0529,-3.52136 1.95781,3.24253 0.16105,-2.82943 1.63349,2.41308 0.16627,-2.50844 1.61788,2.98596 0.0124,-3.88784 2.07928,3.70167 0.19169,-2.93823 1.54158,2.90191 0.14684,-3.25104 1.67609,2.97186 0.52257,-1.19601 0.54895,0.61241 0.1366,-2.64659 1.70678,3.0961 0.30263,-2.38757 1.20878,2.11955 0.19968,-2.75248 1.51761,2.32278 0.40719,-1.397 0.89512,1.32224 0.0763,-3.09854 1.88762,2.81597 0.0468,-3.11474 1.97633,3.26586 0.28263,-2.22372 1.26877,1.91674 0.19369,-2.48869 1.53552,2.39382 0.0461,-3.27938 1.97829,3.55791 0.005,-3.9302 2.1028,3.55622 0.50307,-1.19403 0.60743,0.71841 0.33546,-1.66092 1.11028,2.04619 0.20677,-2.81955 1.49631,2.15896 0.19459,-2.36322 1.53282,2.44502 0.50808,-0.99737 0.59244,0.89644 0.26651,-2.2189 1.31706,2.09456 0.27077,-2.20995 1.30435,2.49992 0.28064,-2.58762 1.27475,1.94531 0.31397,-1.91339 1.17469,2.11774 0.35943,-2.01992 1.03832,1.84787 0.23873,-2.5893 1.4005,2.15368 0.0689,-3.16919 1.90995,3.08395 0.47627,-1.19367 0.68782,1.51908 0.44622,-1.78206 0.77802,1.45358 0.37192,-1.94878 1.00088,1.31892 0.35017,-1.56217 1.06613,1.45684 0.43148,-1.18057 0.82223,1.29848 0.44899,-1.33285 0.76969,1.25729 0.48942,-1.17248 0.64836,0.74989 0.30667,-1.79677 1.19664,1.85882 0.0615,-3.26315 1.93212,3.1149 0.0672,-3.29268 1.91495,2.82068 0.13388,-2.68978 1.71498,2.8389 0.27059,-2.33934 1.30491,2.19914 0.40163,-1.70127 0.91177,1.23111 0.15679,-2.62738 1.64624,2.61487 0.48884,-1.11947 0.65013,1.36516 0.49749,-1.45011 0.62417,0.71787 0.34001,-1.65199 1.0966,2.08755 0.36679,-2.11747 1.01631,1.57319 0.33114,-1.91831 1.12317,1.51346 0.24373,-2.13476 1.38545,2.28376 0.31181,-2.13258 1.18124,1.57259 0.16737,-2.49626 1.6145,2.26228 0.3948,-1.31955 0.9322,1.14155 0.24611,-2.07232 1.3783,2.22126 0.0459,-3.45774 1.97896,3.21257 0.21595,-2.60598 1.46879,2.50998 0.22783,-2.67432 1.4332,1.93249 0.45804,-0.97558 0.74249,1.39159 0.0443,-3.68312 1.98379,3.53226 0.34644,-2.26352 1.07737,1.92454 0.0665,-3.56727 1.91714,2.81208 0.10899,-2.88176 1.78969,3.14609 0.46688,-1.58445 0.71598,1.29912 0.38989,-1.8731 0.94693,1.886 0.0109,-4.04288 2.08425,3.7043 0.14311,-3.34732 1.68734,2.38602 0.4874,-0.89911 0.65442,0.78016 0.37604,-1.53758 0.9885,1.94681 0.29366,-2.5935 1.23564,1.62418 0.0236,-3.27176 2.04618,3.10905 0.52368,-0.87122 0.54559,0.60091 0.23754,-2.26204 1.40397,2.48904 0.48445,-1.49496 0.66325,1.01386 0.33432,-1.99123 1.1137,1.43784 0.09,-2.95953 1.84682,3.19122 0.0656,-3.66625 1.91982,2.95862 0.0965,-3.16268 1.82708,2.65607 0.25691,-2.18312 1.34589,2.43935 0.28895,-2.57667 1.24982,2.32466 0.24437,-2.85138 1.38351,1.88421 0.29083,-1.95951 1.24413,2.02446 0.0296,-3.68487 2.02787,2.84928 0.25157,-2.10643 1.36192,2.2098 0.13163,-3.16083 1.72176,3.03848 0.4148,-1.94456 0.87222,1.46537 0.37721,-1.92759 0.985,1.30702 0.51078,-0.89565 0.5843,0.72491 0.16956,-2.73321 1.60794,2.83271 0.44513,-1.77356 0.78122,1.47271 0.28943,-2.54678 1.24842,1.99464 0.23605,-2.60382 1.40842,1.98628 0.007,-3.5355 2.09428,3.30399 0.16324,-2.94965 1.62685,2.64679 0.21442,-2.77252 1.47345,2.69612 0.52196,-1.46208 0.55085,0.85457 0.43077,-1.5669 0.82438,1.13101 0.0471,-3.41062 1.97533,3.02214 0.1412,-2.97662 1.69305,2.76406 0.39153,-1.86064 0.94206,1.127 0.35536,-1.60793 1.05054,2.03059 0.26379,-2.81498 1.32522,2.20513 0.43114,-1.6766 0.82324,1.05836 0.0906,-3.10388 1.84486,3.21414 0.12126,-3.46537 1.75287,3.00999 0.36589,-2.12786 1.01895,1.78636 0.42727,-1.75249 0.83483,1.01382 0.18457,-2.53289 1.56295,2.57738 0.4918,-1.32805 0.64124,0.9926 0.0442,-3.53845 1.98393,2.84503 0.32165,-1.78978 1.15166,1.6323 0.18629,-2.60458 1.5578,2.14962 0.39147,-1.39684 0.94217,1.25439 0.10083,-2.98551 1.81415,2.8083 0.51534,-0.98182 0.5706,1.20554 0.30858,-2.44283 1.19087,1.8905 0.51498,-1.0537 0.57173,1.28114 0.0259,-3.95209 2.03872,3.22203 0.51138,-1.00767 0.5825,0.80189 0.27916,-2.13056 1.27924,1.68998 0.22979,-2.1255 1.42728,2.69048 0.0739,-3.66318 1.89476,2.75254 0.30683,-1.75359 1.19614,2.36497 0.13512,-3.36397 1.71125,2.53325 0.46222,-1.00863 0.72995,1.1144 0.25334,-2.24691 1.35663,2.39256 0.23897,-2.54912 1.39976,2.01293 0.37478,-1.39539 0.99231,1.39274 0.25296,-2.04679 1.35769,2.45462 0.15687,-2.9672 1.64604,2.46272 0.39927,-1.26175 0.91886,1.2186 0.29752,-1.72223 1.22408,2.01657 0.46582,-1.15702 0.71921,1.60183 0.24955,-2.65094 1.36799,2.02982 0.0688,-2.87432 1.9113,3.41351 0.1121,-3.1055 1.78036,2.76601 0.484,-0.81886 0.66462,1.27591 0.33766,-1.92172 1.10369,1.71797 0.1383,-2.59118 1.70175,2.82497 0.0883,-2.91299 1.85156,3.25378 0.0548,-3.23174 1.95218,3.02732 0.3349,-1.44432 1.11193,2.07796 0.24201,-2.36745 1.39058,2.59856 0.47968,-1.24247 0.67762,1.60316 0.31853,-2.24262 1.16105,1.72486 0.37203,-1.26963 1.00051,1.73666 0.17383,-2.51235 1.5952,3.17439 0.51874,-1.24704 0.56038,1.35571 0.0432,-3.50502 1.98705,3.17957 0.3384,-1.44045 1.10142,1.89364 0.22958,-2.1967 1.42804,2.63307 0.47863,-1.16346 0.68068,1.19067 0.41592,-1.30676 0.86896,1.43316 0.39986,-1.30015 0.91706,1.56432 0.25969,-2.02325 1.33758,2.02585 0.0745,-2.65204 1.89307,3.26177 0.3889,-1.40907 0.94995,1.52556 0.20068,-2.20524 1.51459,2.66417 0.26868,-2.04096 1.31065,2.25135 0.10832,-2.75279 1.79169,2.85711 0.42922,-0.97967 0.82899,1.4027 0.14544,-2.55527 1.68034,3.30854 0.49937,-1.28498 0.61854,1.43732 0.36739,-1.88215 1.0144,1.90229 0.10986,-2.90926 1.78707,3.52167 0.0872,-3.3082 1.85497,3.21104 0.39769,-1.38323 0.92363,1.46179 0.41473,-1.15791 0.8724,1.73203 0.24732,-2.32735 1.37476,2.68698 0.14176,-2.93028 1.69131,2.6411 0.48106,-0.70145 0.67354,1.6324 0.25018,-2.56327 1.36598,2.42279 0.0504,-3.13269 1.96533,3.30739 0.27598,-1.89899 1.28867,2.05212 0.42052,-1.10985 0.85504,1.69445 0.33734,-1.90292 1.10462,2.22782 0.25064,-2.43103 1.36473,2.78375 0.48043,-1.42897 0.67534,0.88124 0.27095,-1.72846 1.30377,2.18433 0.35586,-1.54462 1.04906,2.17207 0.2962,-2.26201 1.22802,2.15304 0.0262,-3.25165 2.03777,3.74299 0.0103,-3.53783 2.08561,3.97451 0.14321,-3.04713 1.68699,2.70456 0.31684,-1.61905 1.16619,2.37552 0.5267,-1.16166 0.53651,1.35027 0.35475,-2.05282 1.05242,1.71137 0.33364,-1.63771 1.11568,1.96559 0.43912,-1.2724 0.79927,1.50176 0.45537,-1.27187 0.75048,1.61305 0.27434,-2.35227 1.29367,2.00024 0.0721,-2.80313 1.90032,3.08536 0.48575,-0.83736 0.65936,1.38513 0.39388,-1.70432 0.93502,1.48065 0.26194,-1.97712 1.33083,2.52221 0.15984,-2.847 1.63722,2.99668 0.31225,-2.05767 1.17987,2.43535 0.0463,-3.57973 1.97771,3.80523 0.16566,-3.01216 1.61978,2.83608 0.27747,-2.10775 1.28429,1.89566 0.37441,-1.26527 0.99339,2.1342 0.20765,-2.81825 1.49366,2.32109 0.3717,-1.35329 1.00141,1.46008 0.49493,-0.72633 0.63197,1.50579 0.39949,-1.86881 0.91815,1.78519 0.51344,-1.10485 0.57626,0.84866 0.17719,-2.40076 1.58502,3.07573 0.21124,-2.75176 1.48291,2.23113 0.2513,-1.88615 1.36264,2.73178 0.0717,-3.47577 1.90138,3.34649 0.2854,-2.13011 1.26044,2.13571 0.23629,-2.24907 1.40765,2.82926 0.0692,-3.51777 1.90905,3.38722 0.008,-3.53206 2.09357,3.4037 0.35369,-1.53629 1.05549,1.66995 0.36353,-1.51305 1.02599,1.87351 0.33131,-1.92659 1.12264,1.81959 0.46907,-1.03239 0.70955,1.01394 0.37978,-1.36621 0.97725,1.5343 0.52649,-0.7122 0.53715,0.87722 0.2452,-2.18635 1.38113,2.42528 0.3834,-1.62787 0.9664,1.33926 0.2935,-1.68723 1.236,2.52349 0.2707,-2.5298 1.3047,2.18959 0.1428,-2.71216 1.6882,3.19662 0.1889,-2.84564 1.5501,2.30921 0.4567,-0.87176 0.7464,1.55099 0.1346,-3.06118 1.7129,2.66548 0.1976,-2.23425 1.5237,2.95792 0.2176,-2.74921 1.4639,2.32373 0.3479,-1.574 1.0729,1.87421 0.4654,-1.20526 0.7205,1.04552 0.3483,-1.55021 1.0719,1.52109 0.5111,-0.62939 0.5831,1.40605 0.5152,-1.31952 0.5711,1.15809 0.4694,-1.31879 0.7084,1.45725 0.3589,-1.93265 1.04,2.13329 0.3033,-2.32494 1.2067,2.49065 0.048,-3.66292 1.9723,3.24352 0.1669,-2.53939 1.6159,3.13633 0.4044,-1.86044 0.9035,1.32552 0.037,-3.06579 2.0046,3.81363 0.207,-2.86055 1.4958,2.19709 0.3783,-1.25522 0.9817,2.04738 0.317,-2.27564 1.1656,2.13446 0.1869,-2.69708 1.5559,2.39281 0.3753,-1.36681 0.9907,1.36874 0.5003,-0.67723 0.6156,0.83153 0.2626,-1.9487 1.3291,1.91973 0.011,-3.08015 2.0837,3.34702 0.4147,-1.24014 0.8725,1.43826 0.048,-3.18637 1.9727,3.03261 0.1893,-2.22965 1.5488,2.30968 0.3007,-1.66989 1.2145,1.98117 0.083,-2.98052 1.8665,3.36913 0.2807,-2.29501 1.2745,1.91876 0.025,-3.10558 2.0405,3.27198 0.2858,-1.88123 1.2593,2.52481 0.339,-2.18627 1.0996,1.95866 0.5119,-1.03248 0.5806,0.8908 0.3476,-1.65231 1.074,2.10882 0.4303,-1.63058 0.8253,1.25888 0.098,-2.8472 1.8237,3.09454 0.5015,-1.00378 0.6121,0.75671 0.4697,-0.86147 0.7072,1.04206 0.4918,-0.87836 0.6413,1.51802 0.4117,-1.86174 0.8813,1.59743 0.09,-3.1338 1.8478,3.11607 0.2908,-2.03039 1.244,2.45316 0.075,-3.45489 1.8929,3.50739 0.3797,-1.90664 0.9773,1.49148 0.33,-1.67772 1.127,1.61736 0.4665,-0.87537 0.7171,1.51822 0.3145,-2.21889 1.173,1.94903 0.1892,-2.50457 1.5489,2.59875 0.1898,-2.52052 1.5474,2.33254 0.1029,-2.68801 1.8083,2.86149 0.4301,-1.15675 0.8263,1.42091 0.1051,-2.97849 1.8016,3.44416 0.2182,-2.80212 1.462,2.24533 0.029,-3.11398 2.0304,3.26769 0.2112,-2.27721 1.4833,2.58106 0.484,-1.15713 0.6644,0.83043 0.108,-2.64841 1.7927,2.74416 0.5271,-0.58814 0.5356,1.28854 0.3319,-2.21227 0.3261,1.78318 0.9843,-1.46239 0.4465,1.46746 0.8317,-1.12068 0.237,1.39224 -3.0241,12.59663 -1100.738128,22.58242 z" />
  </g>
</svg>
