<?xml version="1.0" encoding="UTF-8" standalone="no"?>
<!-- Created with Inkscape (http://www.inkscape.org/) -->

<svg
   xmlns:dc="http://purl.org/dc/elements/1.1/"
   xmlns:cc="http://creativecommons.org/ns#"
   xmlns:rdf="http://www.w3.org/1999/02/22-rdf-syntax-ns#"
   xmlns:svg="http://www.w3.org/2000/svg"
   xmlns="http://www.w3.org/2000/svg"
   xmlns:xlink="http://www.w3.org/1999/xlink"
   xmlns:sodipodi="http://sodipodi.sourceforge.net/DTD/sodipodi-0.dtd"
   xmlns:inkscape="http://www.inkscape.org/namespaces/inkscape"
   width="1000"
   height="300"
   viewBox="0 0 264.58 79.374"
   version="1.1"
   id="svg8"
   inkscape:version="0.91+devel r14527 custom"
   sodipodi:docname="field-snowy-pond.svg">
  <sodipodi:namedview
     id="base"
     pagecolor="#ffffff"
     bordercolor="#666666"
     borderopacity="1.0"
     inkscape:pageopacity="0.0"
     inkscape:pageshadow="2"
     inkscape:zoom="0.50000001"
     inkscape:cx="728.28124"
     inkscape:cy="51.683554"
     inkscape:document-units="px"
     inkscape:current-layer="layer1"
     showgrid="false"
     units="px"
     inkscape:window-width="1920"
     inkscape:window-height="1016"
     inkscape:window-x="0"
     inkscape:window-y="27"
     inkscape:window-maximized="1"
     showguides="false"
     inkscape:snap-global="false" />
  <defs
     id="defs2">
    <linearGradient
       inkscape:collect="always"
       id="linearGradient5956">
      <stop
         style="stop-color:#a3b0c7;stop-opacity:1"
         offset="0"
         id="stop5952" />
      <stop
         style="stop-color:#c8d0de;stop-opacity:1"
         offset="1"
         id="stop5954" />
    </linearGradient>
    <linearGradient
       inkscape:collect="always"
       xlink:href="#linearGradient5956"
       id="linearGradient5958"
       x1="1181.4324"
       y1="222.85832"
       x2="1201.2305"
       y2="222.85832"
       gradientUnits="userSpaceOnUse"
       gradientTransform="rotate(90,1202.3672,222.85832)" />
    <clipPath
       clipPathUnits="userSpaceOnUse"
       id="clipPath6010">
      <path
         style="fill:none;fill-rule:evenodd;stroke:#000000;stroke-width:0.26458001px;stroke-linecap:butt;stroke-linejoin:miter;stroke-opacity:1"
         d="m 1100.9039,192.34245 c 69.1765,2.73625 137.934,1.70135 206.6174,0 l -2.4291,22.69424 c -67.2625,8.02279 -134.7474,10.26328 -202.7132,0 z"
         id="path6012"
         inkscape:connector-curvature="0"
         sodipodi:nodetypes="ccccc" />
    </clipPath>
  </defs>
  <metadata
     id="metadata5">
    <rdf:RDF>
      <cc:Work
         rdf:about="">
        <dc:format>image/svg+xml</dc:format>
        <dc:type
           rdf:resource="http://purl.org/dc/dcmitype/StillImage" />
        <dc:title></dc:title>
      </cc:Work>
    </rdf:RDF>
  </metadata>
  <g
     transform="translate(0,-217.62359)"
     id="layer1"
     inkscape:groupmode="layer"
     inkscape:label="Layer 1">
    <g
       id="g6582"
       transform="translate(-1058.32,52.915922)">
      <path
         sodipodi:nodetypes="ccccc"
         inkscape:connector-curvature="0"
         id="rect6572"
         d="m 1102.3896,194.33563 h 200.2031 v 19.19239 c -65.5627,7.62226 -132.1101,8.83823 -200.2031,0 z"
         style="opacity:1;fill:#dddddd;fill-opacity:1;fill-rule:nonzero;stroke:none;stroke-width:0.52916002;stroke-linecap:butt;stroke-linejoin:round;stroke-miterlimit:4;stroke-dasharray:none;stroke-dashoffset:0;stroke-opacity:1" />
      <g
         clip-path="url(#clipPath6010)"
         id="g5989">
        <path
           style="opacity:1;fill:#8f9fbc;fill-opacity:1;fill-rule:nonzero;stroke:none;stroke-width:2.00000024;stroke-linecap:butt;stroke-linejoin:round;stroke-miterlimit:4;stroke-dasharray:none;stroke-dashoffset:0;stroke-opacity:1"
           d="m 1097.7603,201.92361 c 68.6014,3.07344 138.1769,3.51252 209.2137,0 v 41.86941 h -209.2137 z"
           id="rect5970"
           inkscape:connector-curvature="0"
           sodipodi:nodetypes="ccccc" />
        <path
           style="fill:#1c3f19;fill-opacity:1;fill-rule:evenodd;stroke:none;stroke-width:0.26458335px;stroke-linecap:butt;stroke-linejoin:miter;stroke-opacity:1"
           d="m 1106.8517,214.21852 -0.6682,-15.01785 3.2073,17.42648 1.1443,-14.56053 1.944,14.82673 16.6164,2.31183 -1.1464,-14.80028 4.8344,14.75884 8.3016,0.53454 -3.5143,-15.22308 7.8275,16.4317 14.5814,0.43662 1.1057,-13.65699 2.0089,14.40236 17.1516,-0.12838 1.2423,-13.00675 1.4699,13.52274 3.0821,-13.47535 1.7372,13.94332 13.6742,-0.024 1.7627,-14.18768 2.5391,13.38566 20.5122,-0.26727 1.1152,-21.28055 1.9676,22.38575 2.1158,-16.23035 2.8271,16.92605 27.7192,-4.36815 -0.4009,-13.13424 3.0569,13.56639 5.8781,-0.5256 0.9743,-13.0172 2.6504,12.9965 0.8018,-12.35933 2.7024,12.37645 0.4557,-18.13974 3.1218,17.46337 11.9419,-1.78878 -0.4548,-16.08248 4.2503,16.41509 -98.6842,11.73648 z"
           id="path5973"
           inkscape:connector-curvature="0"
           sodipodi:nodetypes="cccccccccccccccccccccccccccccccccccccccccc" />
        <path
           sodipodi:nodetypes="ccccc"
           inkscape:connector-curvature="0"
           style="opacity:1;fill:#705b37;fill-opacity:1;fill-rule:nonzero;stroke:none;stroke-width:2;stroke-linecap:butt;stroke-linejoin:round;stroke-miterlimit:4;stroke-dasharray:none;stroke-dashoffset:0;stroke-opacity:1"
           d="m 1102.8947,191.93343 c 66.5827,1.96623 133.4398,1.73739 200.5264,-0.3274 0.5626,1.30766 0.9303,3.00541 0.7836,5.73168 -65.2679,3.61323 -133.8272,4.36016 -202.1133,-0.0745 0.046,-2.1457 0.3816,-3.80968 0.8033,-5.32978 z"
           title="3/((0.1*x)*(0.1*x)+3)+3/((0.5*x+2)*(0.5*x+2)+3)+1.5/((0.5*x-8)*(0.5*x-8)+3)"
           id="path4846" />
        <path
           sodipodi:nodetypes="ccccc"
           inkscape:connector-curvature="0"
           id="path5934"
           d="m 1097.7603,201.92357 c 68.6014,3.0735 138.1769,3.5126 209.2137,0 v 41.8695 h -209.2137 z"
           style="opacity:0.89499996;fill:url(#linearGradient5958);fill-opacity:1;fill-rule:nonzero;stroke:none;stroke-width:2.00000024;stroke-linecap:butt;stroke-linejoin:round;stroke-miterlimit:4;stroke-dasharray:none;stroke-dashoffset:0;stroke-opacity:1" />
      </g>
      <path
         style="opacity:1;fill:#f2f2f2;fill-opacity:1;fill-rule:nonzero;stroke:none;stroke-width:1.99997473;stroke-linecap:butt;stroke-linejoin:round;stroke-miterlimit:4;stroke-dasharray:none;stroke-dashoffset:0;stroke-opacity:1"
         d="m 1100.9039,191.41622 c -2.5465,12.80499 -0.1215,16.41269 -0.1787,24.61265 67.9658,10.26328 138.3204,7.77897 205.5829,-0.24382 1.9099,-8.12295 1.7718,-16.24589 1.2132,-24.36883 -68.6834,1.70135 -137.4409,2.73625 -206.6174,0 z m 200.9522,3.31655 c 0.2564,3.0468 0.6979,6.22488 -0.053,9.13628 0.2175,6.9547 -7.6669,5.58642 -12.1263,6.82534 -49.2993,7.33773 -99.8285,7.67422 -149.3409,2.34091 -11.4119,-1.56206 -23.1247,-2.96509 -34.0389,-6.55507 -1.9644,-3.58496 -1.8501,-7.64445 -1.7275,-11.65238 65.7622,3.2118 131.5246,3.04243 197.2868,-0.0951 z"
         id="path4241-7"
         inkscape:connector-curvature="0"
         sodipodi:nodetypes="ccccccccccccc" />
    </g>
  </g>
</svg>
