<?xml version="1.0" encoding="UTF-8" standalone="no"?>
<!-- Created with Inkscape (http://www.inkscape.org/) -->

<svg
   xmlns:dc="http://purl.org/dc/elements/1.1/"
   xmlns:cc="http://creativecommons.org/ns#"
   xmlns:rdf="http://www.w3.org/1999/02/22-rdf-syntax-ns#"
   xmlns:svg="http://www.w3.org/2000/svg"
   xmlns="http://www.w3.org/2000/svg"
   xmlns:sodipodi="http://sodipodi.sourceforge.net/DTD/sodipodi-0.dtd"
   xmlns:inkscape="http://www.inkscape.org/namespaces/inkscape"
   width="7200"
   height="720"
   viewBox="0 0 7200 720.00003"
   version="1.1"
   id="svg4253"
   inkscape:version="0.91+devel r14527 custom"
   sodipodi:docname="grass.svg">
  <defs
     id="defs4247" />
  <sodipodi:namedview
     id="base"
     pagecolor="#ffffff"
     bordercolor="#666666"
     borderopacity="1.0"
     inkscape:pageopacity="0.0"
     inkscape:pageshadow="2"
     inkscape:zoom="0.98994949"
     inkscape:cx="3684.9926"
     inkscape:cy="392.4809"
     inkscape:document-units="px"
     inkscape:current-layer="layer1"
     showgrid="false"
     units="px"
     inkscape:window-width="1920"
     inkscape:window-height="1016"
     inkscape:window-x="0"
     inkscape:window-y="27"
     inkscape:window-maximized="1" />
  <metadata
     id="metadata4250">
    <rdf:RDF>
      <cc:Work
         rdf:about="">
        <dc:format>image/svg+xml</dc:format>
        <dc:type
           rdf:resource="http://purl.org/dc/dcmitype/StillImage" />
        <dc:title></dc:title>
      </cc:Work>
    </rdf:RDF>
  </metadata>
  <g
     inkscape:label="Layer 1"
     inkscape:groupmode="layer"
     id="layer1"
     transform="translate(0,-402.51965)">
    <path
       inkscape:connector-curvature="0"
       id="path4235"
       style="fill:#255321;fill-opacity:1;fill-rule:evenodd;stroke:none;stroke-width:0.01850299px;stroke-linecap:butt;stroke-linejoin:miter;stroke-opacity:1"
       d="m 4926.3781,724.18432 2.3252,-13.88986 6.6244,11.68667 1.5448,-6.49814 3.3577,6.80319 1.9586,-4.91635 2.1169,3.1104 1.4813,-5.67027 3.5475,7.38317 1.2518,-8.72156 4.2372,8.53387 1.8747,-5.58032 2.3675,5.19601 1.7027,-6.19314 2.8846,5.3069 0.5401,-11.27685 6.3712,11.53356 0.2117,-13.35331 7.3607,13.67205 0.604,-11.83813 6.18,10.49581 1.2397,-7.40347 4.2728,7.31151 1.1214,-7.95676 4.6281,8.33272 0.5941,-10.99906 6.2095,10.19722 1.8516,-3.91035 2.4371,5.59974 0.2154,-13.75848 7.3494,13.64124 0.796,-10.66067 5.6036,9.59884 1.0477,-8.24341 4.8488,8.38835 1.8191,-4.42444 2.535,3.43915 0.3174,-10.79247 7.0376,12.07034 1.166,-7.62563 4.4939,7.69004 0.573,-10.4223 6.2726,11.72961 1.748,-5.6149 2.7486,6.23388 0.6519,-11.44591 6.0356,10.93412 0.9703,-9.00658 5.0816,8.66944 1.0655,-7.8456 4.7951,7.60719 1.3051,-6.05431 4.0766,6.67064 0.4339,-10.60065 6.6903,11.16891 1.0711,-7.50707 4.7785,9.43095 1.3773,-7.46885 3.8604,7.53465 1.7039,-5.49905 2.88,4.96511 1.7666,-4.26763 2.6929,3.95242 1.4234,-5.24224 3.7218,8.05957 0.3515,-12.83876 6.9328,12.22144 1.4113,-6.33279 3.7588,7.7767 0.6928,-10.78188 5.9135,9.4684 1.5984,-4.35361 3.1964,5.13391 1.8066,-3.61048 2.572,3.61464 0.7631,-8.24851 5.703,9.18195 0.2155,-11.14816 7.3475,12.002 1.9582,-2.62741 2.1169,4.34319 1.9166,-4.07975 2.2421,4.42509 1.3391,-6.76386 3.975,8.50488 0.5287,-11.83608 6.4064,11.60813 0.064,-13.05193 7.8025,12.61895 0.9615,-7.28578 5.1074,9.37448 1.426,-6.36979 3.7138,8.12817 1.1551,-8.82025 4.5271,8.08697 0.3874,-11.13024 6.8294,11.70825 0.8942,-8.34715 5.3092,10.21264 0.4002,-11.85423 6.7915,12.1304 1.191,-7.38522 4.4191,8.33616 0.963,-8.75607 5.1036,10.27829 1.7023,-5.9252 2.8853,5.29692 0.3704,-11.2332 6.8834,12.25758 1.3856,-6.41586 3.8351,7.76812 1.9881,-4.19525 2.0281,3.00657 1.0125,-7.2798 4.9543,10.25236 0.9211,-9.98253 5.2286,7.80527 1.2624,-5.40755 4.2056,6.21098 1.031,-6.69129 4.898,7.97483 0.8954,-7.94459 5.3053,10.31351 0.2911,-12.54395 7.1165,12.48348 1.9836,-3.36994 2.0409,4.47528 0.8822,-9.40192 5.3451,8.59392 1.3504,-5.60696 3.9402,6.5607 1.8051,-3.75218 2.5769,6.0279 1.1887,-8.56168 4.4259,7.37289 1.6649,-4.43484 2.998,6.12404 1.4135,-6.85085 3.7505,8.10911 1.9257,-5.05692 2.2148,4.29371 1.4843,-6.01999 3.5392,5.59717 0.2796,-10.96761 7.1487,13.66441 0.3553,-12.53813 6.9231,12.47501 1.7344,-4.99217 2.7882,5.27613 1.841,-4.30625 2.4685,5.5943 1.762,-5.56104 2.7058,3.76993 0.9302,-7.41798 5.2018,8.99267 1.1951,-7.10825 4.4066,7.24805 0.5707,-9.7877 6.2805,9.66082 0.6535,-8.62193 6.0311,9.86889 0.1398,-11.78974 7.5743,12.3902 1.0224,-7.36768 4.924,7.72489 0.1021,-11.72643 7.6838,14.60582 1.9567,-4.82905 2.1223,3.61747 0.4652,-10.60477 6.5961,11.01762 0.5073,-10.22682 6.4698,11.77928 1.2953,-7.33695 4.1065,7.0695 0.7854,-9.14619 5.6357,8.32803 0.045,-11.46931 7.8577,14.78101 1.1139,-8.90842 4.65,6.72957 0.4622,-9.50393 6.6056,12.59173 1.2514,-8.17866 4.2373,7.68531 1.7242,-4.95498 2.8192,5.39372 1.2102,-7.59839 4.3613,8.16479 1.8278,-4.72345 2.5077,3.39331 0.7321,-8.49282 5.7956,9.09154 0.4936,-9.81767 6.5115,11.89379 0.7404,-10.20077 5.7707,9.34005 1.6577,-4.38038 3.0184,3.98322 1.0465,-6.69283 4.8522,9.51013 0.2041,-13.28491 7.3785,12.35562 0.1966,-11.91605 7.4034,11.34016 1.7174,-3.356 2.84,5.52441 1.6747,-5.45638 2.9685,4.93272 0.098,-12.42901 7.6922,12.16433 1.7125,-3.73267 2.854,5.44784 1.3262,-7.09071 4.0143,8.0635 1.5708,-6.54271 3.2791,6.74545 1.0591,-8.99728 4.8144,9.50752 1.6366,-6.3224 3.0826,4.0028 0.6795,-8.47003 5.9529,10.86443 1.6762,-5.57155 2.9625,4.86499 1.0563,-7.68168 4.8232,7.87705 1.3746,-5.98836 3.868,7.76582 1.6706,-6.02582 2.9806,5.96818 1.7117,-5.52185 2.8574,3.69968 0.7661,-8.14189 5.6932,9.89017 0.895,-8.92486 5.3065,8.07702 1.9121,-2.73338 2.2564,4.99697 0.3326,-12.6073 6.993,13.08799 1.8024,-5.45389 2.5841,3.73531 0.6917,-9.02653 5.9173,11.21294 1.1724,-8.51727 4.4747,6.95026 1.237,-6.36586 4.2812,7.5206 1.5382,-5.77149 3.3767,5.91602 1.5553,-5.60677 3.3257,4.41344 0.9362,-7.26033 5.1829,8.39096 1.3168,-6.23264 4.0415,5.73589 1.9582,-2.31942 2.1169,2.42067 0.9967,-7.00998 5.0023,9.91288 1.3062,-8.1192 4.0736,7.92773 0.4222,-12.07945 6.725,11.86171 1.5307,-6.06441 3.399,6.1623 0.6289,-10.43121 6.1055,9.79186 0.948,-7.93379 5.1485,8.6499 1.8391,-3.98333 2.4753,4.09642 0.5333,-10.39871 6.392,11.73687 0.3866,-12.19083 6.832,11.46492 1.2907,-6.69741 4.1194,8.19155 0.072,-14.02661 7.7735,14.22024 1.8058,-5.32115 2.5739,4.25437 0.8826,-8.67288 5.3443,8.79065 1.7065,-4.46996 2.8728,5.35075 1.9862,-3.79345 2.033,4.50306 0.4067,-12.19616 6.7719,12.22285 0.7563,-10.22817 5.723,9.69982 1.8576,-4.00174 2.419,4.77338 0.9452,-9.15232 5.1565,7.6008 1.0832,-6.70315 4.7427,6.74496 1.3406,-5.26488 3.9704,7.21136 0.9442,-8.99634 5.1587,8.0621 0.971,-7.72326 5.0786,7.80161 0.091,-11.96798 7.7175,12.38079 0.4944,-10.12265 6.5092,10.37543 1.0469,-7.40158 4.8511,7.69241 1.5708,-4.9001 3.2795,6.92146 1.2511,-8.35532 4.2391,8.52978 0.9177,-10.01179 5.2393,8.09608 1.2892,-6.05715 4.1246,6.58776 1.2718,-6.50601 4.1769,8.04252 1.7571,-5.46341 2.7209,5.05427 1.8131,-4.63837 2.5527,4.24416 1.019,-8.05805 4.9349,7.93643 1.4699,-5.51735 3.5823,7.58187 0.6667,-11.42294 5.9918,9.1386 0.2041,-11.24265 7.38,11.50257 1.7242,-3.72368 2.8188,5.53081 1.6808,-5.61634 2.9492,4.54411 0.542,-10.07325 6.3659,11.58005 1.7451,-5.40332 2.7568,6.00688 0.9018,-10.07317 5.2869,10.42857 0.7699,-10.91258 5.6829,9.85951 0.2155,-12.43873 7.3467,11.53035 0.4025,-10.39191 6.784,11.50212 0.5669,-10.49153 6.2915,9.78347 0.2457,-11.19953 7.256,11.10258 0.1172,-11.54142 7.6404,12.91749 1.7662,-4.51346 2.6937,5.64056 0.6497,-11.07687 6.042,10.75153 1.2182,-7.75316 4.3374,7.57121 1.1486,-7.77738 4.5465,8.65405 0.415,-12.15995 6.7477,10.83616 0.9588,-7.94996 5.1153,7.8385 0.098,-11.96931 7.6971,12.25104 1.5455,-4.8585 3.3551,5.70478 1.0862,-7.87093 4.7324,9.53682 0.9344,-10.15368 5.1893,7.55295 1.6029,-4.07911 3.1832,4.6061 1.7019,-3.99887 2.8857,4.91526 1.0689,-7.95997 4.7865,9.53186 1.9033,-5.23989 2.2818,3.76238 1.2072,-7.13059 4.3711,7.31783 0.41,-11.155 6.7617,11.72435 0.5771,-10.72923 6.2609,10.27587 0.053,-12.72571 7.8309,14.08398 0.5598,-11.3879 6.313,10.52472 1.4763,-5.80872 3.563,4.9198 1.5024,-4.67711 3.484,5.35732 1.8066,-3.73456 2.572,5.67001 1.0069,-9.55628 4.9713,7.26582 1.1947,-6.20096 4.4078,6.27231 0.3515,-10.34658 6.9355,10.91072 0.8636,-8.20931 5.4014,8.14106 1.7787,-3.45227 2.6559,5.9387 0.5953,-11.73695 6.2056,9.31749 0.6947,-8.68112 5.9079,11.26287 1.5473,-6.8806 3.3499,4.58727 0.9313,-7.5542 5.198,9.96621 1.9726,-4.65689 2.0742,2.79201 1.996,-2.59415 2.0047,2.07143 0.7434,-8.22632 5.7616,8.34867 0.6267,-8.80112 6.1123,11.4486 0.6387,-11.25308 6.0757,11.04452 1.1335,-8.44784 4.5911,7.49206 0.075,-12.65613 7.769,13.23974 1.8489,-4.24881 2.4454,4.70976 0.3402,-12.13296 6.9665,12.29972 0.4452,-11.64465 6.6559,10.59347 1.5681,-4.86605 3.2879,5.7061 1.1369,-7.76294 4.5812,6.83022 0.3515,-10.63327 6.9366,10.60167 1.654,-3.98046 3.0304,5.94187 1.5175,-6.53341 3.4391,5.02374 1.3977,-5.53096 3.7992,5.13497 1.6373,-3.84644 3.0804,4.51705 0.5015,-10.08878 6.4876,9.68111 0.7208,-8.46296 5.8296,10.50582 0.432,-11.82776 6.6963,12.01383 1.1188,-8.46515 4.636,6.60628 0.4055,-10.05658 6.7745,12.03969 0.8452,-9.72704 5.4577,10.06191 0.2078,-13.12038 7.3653,11.07011 0.4369,-9.80316 6.6812,11.56433 1.0167,-8.55409 4.9418,7.92615 0.1134,-12.33045 7.6544,12.54426 1.5141,-5.42875 3.45,7.40732 1.2211,-8.7823 4.3276,8.49056 0.9737,-9.63395 5.0714,7.70118 1.0073,-7.43185 4.9697,8.18274 0.038,-12.91209 7.8759,13.01535 0.3099,-11.53583 7.0629,10.84647 1.7103,-3.74658 2.8607,3.89421 0.2381,-11.15042 7.2731,12.63629 1.4804,-6.33034 3.5498,5.80059 1.8599,-3.83128 2.4125,5.47714 0.6566,-11.40733 6.0227,11.16362 0.6425,-11.12741 6.0644,10.09366 0.7963,-9.22122 5.6021,8.62722 0.8636,-8.1948 5.4014,10.54683 1.6411,-6.57419 3.0687,5.19419 0.257,-12.01459 7.2167,12.61252 0.1172,-13.20614 7.643,12.76695 1.9556,-3.48144 2.1248,2.6344 1.8789,-2.95759 2.3565,3.67994 1.2764,-6.61644 4.1621,7.65262 1.471,-6.60288 3.5789,7.65507 1.0548,-9.65568 4.8281,9.63992 0.325,-13.19404 7.0191,10.42977 1.0798,-6.55514 4.752,7.35161 1.891,-3.22405 2.3191,3.45219 0.7238,-9.21094 5.8213,9.29432 1.7658,-4.00318 2.6941,4.07019 1.0666,-7.49267 4.7921,8.10696 1.951,-3.61577 2.1397,2.9164 1.7696,-3.76151 2.6835,6.08368 0.4966,-12.36677 6.5016,11.49739 0.4982,-11.39391 6.4982,11.47472 0.3742,-12.00049 6.8735,11.25867 1.0141,-7.96099 4.9497,7.43892 0.8557,-8.1465 5.4252,9.23611 0.053,-13.14906 7.8313,13.52751 0.7499,-9.94773 5.7419,8.7792 0.6875,-9.00215 5.9286,8.82032 1.5387,-4.4892 3.3763,6.89444 1.3236,-7.89939 4.0207,7.99993 v -14.50866 l 7.9787,12.44365 0.4418,-10.15697 6.6664,11.61838 1.9609,-3.94988 2.1094,4.40744 1.943,-4.4435 2.1631,4.1304 1.6229,-5.67311 3.1231,4.6279 0.4059,-10.63644 6.7745,12.82444 0.5367,-12.07964 6.3819,11.29795 1.5677,-6.06785 3.2894,5.7222 0.3137,-11.91995 7.0546,10.83495 1.2695,-5.96844 4.1833,6.67212 0.1927,-11.9647 7.408,12.59056 1.4222,-6.37414 3.7259,6.02211 0.094,-12.57574 7.7066,13.97494 0.8493,-10.11819 5.4444,9.03489 1.9873,-3.28026 2.03,3.98602 1.6207,-5.76612 3.1299,4.51466 1.496,-5.07835 3.504,4.60897 0.087,-11.58837 7.7383,14.04676 1.1131,-8.82059 4.6519,8.41787 1.9711,-4.07022 2.0784,4.51863 0.8651,-9.98741 5.3965,8.35104 0.9494,-7.85664 5.144,7.34122 1.1743,-6.14661 4.4686,7.86005 1.4752,-6.29338 3.5664,5.30332 0.4222,-10.49698 6.7253,12.90343 0.2268,-13.79533 7.3116,12.9145 0.049,-13.71827 7.8476,12.45945 1.231,-6.46701 4.2981,8.06588 1.1365,-8.47551 4.5824,7.94985 0.5941,-10.59094 6.2099,11.31684 0.1625,-13.39519 7.5055,14.0858 0.963,-10.00503 5.1036,10.08069 v -14.77897 l 7.9696,12.61951 v -12.49954 l 7.9503,12.89379 1.5436,-5.17515 3.3619,4.84576 0.8686,-8.15855 5.3863,8.77458 0.8224,-8.93692 5.5246,9.11717 1.8509,-3.91791 2.4397,5.1561 1.4593,-7.06183 3.614,5.31449 v -12.46023 l 7.9431,13.50498 1.0145,-8.44073 4.9493,8.06913 1.719,-4.48806 2.8343,3.58878 1.9816,-2.23169 2.0474,3.30921 1.979,-3.2792 2.0546,3.39969 0.6607,-9.93737 6.011,10.40804 0.4736,-11.2688 6.5708,11.34232 0.3363,-11.96376 6.9885,12.74889 1.9525,-4.60107 2.1351,2.53262 1.2389,-6.04981 4.2751,7.8747 0.344,-12.28313 6.9593,11.69824 0.3288,-11.7027 7.0073,11.6572 1.0149,-8.15716 4.9474,7.13123 1.2246,-6.02476 4.3185,7.6708 0.6622,-10.41976 6.0046,10.3978 0.7533,-9.87856 5.7325,8.50813 0.7937,-8.24227 5.6115,9.73826 1.0923,-8.18384 4.7151,8.56218 1.1331,-8.30052 4.5922,6.9187 0.038,-12.34825 7.8899,13.45389 1.2189,-7.46534 4.336,7.61229 1.8372,-4.47176 2.4805,3.62952 0.121,-12.15232 7.6291,13.50473 1.9956,-4.07586 2.0054,4.99226 1.5806,-7.0231 3.2497,6.52597 0.5862,-11.44331 6.2333,10.47865 0.9014,-8.84024 5.2873,10.47509 1.0945,-9.45321 4.7079,8.39021 0.6055,-10.77735 6.1754,10.93257 0.378,-12.01152 6.8622,10.47191 0.3666,-10.45075 6.8898,11.1776 0.9052,-8.42603 5.2763,8.60273 0.7491,-9.32501 5.7446,9.11271 0.7151,-9.2236 5.8466,8.44739 0.102,-11.44565 7.6847,12.46988 1.2514,-6.66574 4.238,6.73146 1.4461,-5.71082 3.6545,6.80701 0.9762,-9.10454 5.0631,8.92327 1.3316,-7.09732 3.9976,7.71404 0.7813,-10.41167 5.6478,9.26135 1.4918,-5.65946 3.5169,5.41477 0.2381,-11.62056 7.2734,12.70046 0.6837,-10.4173 5.9408,8.71396 1.3334,-5.41318 3.9912,5.38892 0.2911,-10.54173 7.1162,11.69076 0.6436,-9.87082 6.0606,10.42581 1.2208,-7.4898 4.3306,7.83491 1.9355,-4.21804 2.1854,3.4565 1.1754,-7.21612 4.466,7.65088 0.861,-9.17155 5.4089,9.55329 0.7215,-10.19563 5.8266,10.5545 1.7621,-5.30845 2.7065,6.1694 1.5039,-7.41848 3.4802,6.10636 1.7511,-4.83162 2.7387,3.7038 0.655,-9.13849 6.0273,9.98243 0.8897,-8.75357 5.3224,10.09354 1.7567,-5.71491 2.7213,3.90839 1.8055,-3.6304 2.5762,3.35785 0.8149,-8.26499 5.5469,8.09423 1.1939,-6.15149 4.4104,7.66396 1.3297,-6.94149 4.0033,5.92445 1.4483,-5.28914 3.6477,5.4447 0.083,-12.21687 7.742,11.86568 1.2125,-6.16748 4.3552,8.71619 0.2419,-13.51239 7.264,13.35686 0.7967,-10.53137 5.6021,8.20641 1.2616,-5.83378 4.2067,8.36802 0.3175,-13.04543 7.0429,11.21706 1.4759,-5.37168 3.5645,6.83819 0.9536,-9.4066 5.1319,7.4238 -2.2904,56.08168 L 4934.809,845.6296 Z M 0,803.8778 l 0.9380414,-10.33192 5.1858753,8.94043 0.191814,-12.72137 7.4245293,13.68169 1.578532,-6.79352 3.264401,5.98314 1.947554,-4.17076 2.157344,4.36556 1.459143,-6.8413 3.622575,6.44081 0.942003,-9.06769 5.173981,7.62858 1.237373,-6.19476 4.287882,6.4218 0.918785,-8.05809 5.24365,8.52283 0.28086,-11.7631 7.15742,12.18399 1.584511,-5.71162 3.246462,6.28929 1.580203,-6.34715 3.259396,4.82542 1.748103,-4.02109 2.755688,5.01776 1.531537,-6.13629 3.405386,4.36503 0.228777,-10.92618 7.313664,12.12102 0.872768,-8.95362 5.381691,7.85456 1.186848,-6.32966 4.43947,6.73562 0.969385,-7.86783 5.09184,7.71979 1.53712,-4.92347 3.388618,6.83378 1.24552,-8.33223 4.26346,7.35324 1.79814,-4.62862 2.60556,5.05341 0.84286,-9.87161 5.4714,8.67416 0.11134,-12.38703 7.66602,12.21378 0.56489,-10.00359 6.30532,10.44387 0.23237,-12.16343 7.30286,13.4531 1.82563,-5.53406 2.52311,5.60122 0.0534,-14.51115 7.83975,12.69268 1.67219,-4.64914 2.98345,4.71362 1.65726,-4.8258 3.02822,4.82966 0.98701,-8.22409 5.03893,8.94568 1.03658,-8.74639 4.89029,8.36281 0.70087,-10.09226 5.89739,10.11319 1.42856,-6.52271 3.71432,6.63856 0.25897,-12.53821 7.22302,11.54819 0.72213,-9.29046 5.83363,10.79643 1.6834,-6.0364 2.94982,4.60855 0.58733,-10.13644 6.23797,11.76532 1.36047,-7.95026 3.91858,7.02359 0.85853,-9.58183 5.42444,9.31219 0.15833,-12.87202 7.52507,13.54528 1.2697,-8.04396 4.19091,5.79481 0.63999,-8.99513 6.08002,9.08607 1.89827,-2.84126 2.30517,4.03938 1.98869,-3.6225 2.03392,2.43159 1.61484,-4.33865 3.15547,4.688 0.7977,-8.82191 5.60692,9.51161 0.46881,-11.2143 6.59357,12.12718 1.10286,-9.01285 4.69141,7.42618 1.25763,-6.7016 4.2271,8.56542 1.94742,-5.15855 2.15774,2.71653 1.53303,-4.82822 3.40092,7.18418 1.3682,-8.05329 3.89538,7.9156 1.99134,-4.84107 2.02598,4.82905 1.98006,-4.92123 2.05983,2.24329 0.57575,-9.31336 6.27275,9.29397 1.30919,-5.68153 4.07242,7.90838 1.68661,-6.06625 2.94018,4.70296 1.68891,-4.73312 2.93325,4.91371 0.6518,-10.15054 6.04461,10.64774 1.88036,-4.55458 2.35891,4.92993 1.05267,-9.11467 4.84201,7.2239 1.61813,-4.44535 3.1456,5.0776 0.63169,-10.06267 6.10494,11.47014 1.0054,-9.66036 4.98381,9.02067 0.32652,-12.47683 7.0204,11.08481 1.09503,-7.30361 4.71489,7.33899 0.48096,-10.46957 6.55712,10.62041 0.093,-12.6299 7.72092,11.72976 0.47638,-9.88333 6.57086,9.81526 1.40744,-5.21812 3.77773,6.82451 0.90891,-9.37141 5.27326,10.40082 1.24087,-8.79704 4.27735,6.33268 1.00476,-7.56883 4.98579,8.33351 0.58667,-10.48575 6.23996,10.66929 0.223,-12.55809 7.33131,12.07381 1.33809,-6.56077 3.98575,7.48805 1.93771,-4.53617 2.18683,2.79402 0.75757,-8.74685 5.72719,9.46043 0.72394,-9.69321 5.82818,8.43745 0.77769,-8.23347 5.66706,8.42672 1.08606,-6.94569 4.74174,7.25478 0.51602,-10.16921 6.45185,9.66997 0.47963,-9.92271 6.56123,11.2075 1.98945,-3.71419 2.0316,4.10605 1.16404,-8.28252 4.50793,8.65991 0.29519,-13.07135 7.11478,11.38789 1.81027,-3.87228 2.5692,5.24098 0.50499,-11.82584 6.485,10.76352 0.85165,-9.09888 5.44497,7.98817 0.18104,-11.41454 7.45737,11.94958 1.32451,-6.29923 4.02646,7.73294 0.76453,-10.5948 5.70636,8.36594 1.38745,-5.31306 3.83767,5.736 1.13905,-7.03587 4.58285,9.10851 1.83955,-5.6592 2.48126,3.02582 0.37795,-10.3964 6.86658,11.30297 1.77576,-4.37592 2.67277,6.07015 0.11225,-14.45264 7.66282,12.94765 0.0227,-13.47955 7.93095,14.5367 0.0491,-14.49248 7.85264,13.57321 1.19635,-7.91099 4.41099,6.19465 0.95109,-7.48511 5.14669,7.80645 1.09127,-7.17133 4.72613,7.0703 1.87796,-3.19276 2.36613,4.50344 0.70126,-10.44731 5.89629,8.95971 0.63637,-9.35857 6.09086,11.58421 1.40128,-7.82671 3.7962,7.36738 0.24567,-13.2171 7.26306,13.1982 1.78487,-5.56974 2.64536,5.53746 1.75807,-5.72228 2.72579,3.50786 1.27066,-6.00162 4.18803,7.78982 0.99951,-9.21117 5.0014,9.04154 0.91371,-9.54071 5.25883,7.75777 1.70783,-3.84935 2.87645,4.12174 1.86333,-3.39568 2.40993,4.6265 0.14514,-13.28766 7.56471,12.14884 0.60118,-9.95336 6.19642,11.69393 0.54834,-12.03882 6.35494,11.00272 1.47532,-6.4388 3.57412,4.90955 0.75731,-8.56803 5.72806,10.07185 1.11369,-8.36311 4.65893,7.19873 1.01928,-7.74117 4.94213,8.70277 0.0571,-13.59668 7.82837,14.3286 0.32202,-13.09672 7.03379,13.15424 0.39399,-12.88355 6.81805,10.55367 1.64188,-4.38729 3.07438,4.46099 0.30993,-11.19483 7.07003,12.34005 0.21846,-12.88983 7.3444,11.05223 1.28736,-5.78876 4.13784,7.83805 1.38196,-7.43189 3.85411,7.19941 1.18857,-8.23456 4.43435,8.39663 0.55348,-11.65092 6.33952,9.65855 0.65745,-9.22485 6.02771,10.0624 1.8332,-4.25368 2.50038,4.68331 1.15024,-8.16237 4.54932,6.23547 1.05844,-6.76877 4.8247,7.09052 0.476,-10.0861 6.572,9.66143 0.38102,-10.22897 6.8569,12.55144 1.98364,-4.61191 2.04913,2.6028 0.26079,-11.29295 7.21801,10.81835 0.47475,-9.84334 6.57567,10.70459 1.30834,-6.61909 4.07502,8.10072 1.55382,-6.94137 3.33846,5.4913 0.6389,-10.14347 6.08327,8.95147 1.44334,-5.00862 3.66993,5.79111 1.30395,-6.55893 4.08818,5.56108 1.30014,-5.65319 4.09967,7.20138 0.97482,-8.90555 5.07556,9.105 1.76011,-5.25025 2.71963,3.76215 1.33472,-5.95638 3.99588,7.5734 1.82141,-5.20652 2.53576,3.6146 0.61085,-9.74416 6.16744,10.58553 1.242,-7.51504 4.27399,6.52305 0.34205,-11.11142 6.97339,12.08705 1.38665,-6.95261 3.84001,6.34746 1.82603,-4.21801 2.52192,2.88952 1.89874,-2.58632 2.30384,2.69385 1.72489,-3.62499 2.82531,5.62794 1.70477,-5.7936 2.88571,4.0841 0.0397,-12.49838 7.88071,14.2826 0.67776,-11.1971 5.9667,8.61902 1.06678,-6.76423 4.79968,7.79556 0.79077,-9.26461 5.62767,10.7846 1.05556,-9.55026 4.83325,7.67639 0.78581,-9.11539 5.64253,8.46617 1.07351,-7.11815 4.7795,6.67821 0.26419,-10.82308 7.20731,10.88586 0.0548,-12.0471 7.83548,13.30237 1.67273,-5.30679 2.98185,5.95865 1.17676,-8.51625 4.4699,7.23709 1.91522,-3.61879 2.2545,4.61849 0.5519,-11.51856 6.3443,9.4616 1.2638,-5.99633 4.2086,6.06652 0.7677,-8.63863 5.6971,8.75349 1.8741,-3.30308 2.3775,2.77919 1.0216,-7.12094 4.9352,7.22878 1.5266,-4.78835 3.4203,7.1482 0.5212,-12.26775 6.4364,10.41398 0.2222,-12.02158 7.3328,12.21502 0.4097,-11.39451 6.7709,10.52332 1.9578,-2.87206 2.1266,4.66044 1.7708,-5.66332 2.6877,6.07382 1.377,-8.12046 3.8691,6.38556 1.2379,-7.1677 4.2865,6.66048 1.0766,-7.55802 4.7703,6.84281 1.3955,-5.33752 3.8136,6.94565 0.088,-13.58742 7.7351,14.38049 0.5127,-12.37909 6.4618,9.38287 1.5098,-4.49584 3.4706,7.1728 1.1801,-8.90861 4.4595,8.05983 1.3853,-7.12427 3.8442,5.39693 0.1527,-11.66687 7.5415,13.7998 1.7557,-5.88745 2.7329,3.92596 0.1096,-12.25973 7.6713,14.29016 0.3035,-13.44902 7.0895,11.47207 0.1398,-12.41813 7.58,12.3114 1.2112,-7.06932 4.3664,8.61758 1.5575,-6.97668 3.3278,5.49894 0.7333,-9.71804 5.8001,9.48511 1.1107,-7.70493 4.6679,8.36745 0.5495,-11.28415 6.3514,11.15183 0.8309,-9.86129 5.5073,9.02256 0.2234,-12.18244 7.3297,13.70607 0.5951,-11.97491 6.2145,10.96421 1.0336,-8.88578 4.8992,7.58413 0.034,-12.71328 7.9019,13.83483 1.0757,-8.74442 4.773,8.13077 0.6163,-10.54214 6.1511,11.10968 1.8513,-5.03568 2.4461,5.08671 0.7,-10.94301 5.9,9.843 1.567,-5.61331 3.2988,6.7948 1.8597,-5.4162 2.4209,5.48847 0.058,-14.60806 7.8248,13.54864 0.1825,-13.07268 7.4522,13.78612 0.6354,-11.65716 6.0938,10.37441 1.1249,-8.04479 4.6252,9.02891 1.2155,-8.68361 4.3534,6.07952 1.2203,-6.1621 4.3392,6.72186 0.8637,-8.61811 5.4089,9.29983 0.2695,-12.40404 7.1919,12.70977 0.3042,-12.67881 7.0869,11.51568 1.6809,-4.75043 2.9572,6.03322 0.1001,-14.05957 7.6997,14.41432 0.3557,-13.28486 6.9327,11.03042 0.011,-12.91069 7.9699,13.78196 0.9203,-9.37225 5.2393,9.92146 1.5484,-6.89172 3.3547,6.73048 0.2139,-13.52884 7.3581,11.16612 0.9542,-7.60372 5.1374,7.24628 0.7233,-8.52971 5.83,11.02673 1.6664,-6.42676 3.0009,6.2292 0.1281,-14.04789 7.6153,12.24786 1.9665,-3.17911 2.1005,4.8775 0.2903,-13.37863 7.1294,11.93998 0.7059,-10.00828 5.8823,9.05817 0.8607,-8.41965 5.4178,9.74685 1.9788,-4.26571 2.0635,2.91647 0.2253,-11.80815 7.3244,11.45344 0.2332,-11.57499 7.3005,11.66528 1.7223,-4.34995 2.8331,5.9458 0.6293,-11.53314 6.1122,9.60575 1.9917,-2.91069 2.025,2.57302 1.4628,-5.31688 3.6117,6.10923 0.9012,-9.04059 5.2964,9.23418 0.161,-13.08844 7.5171,13.38775 0.793,-10.38401 5.621,10.27629 1.743,-5.6479 2.7709,5.21956 0.7616,-10.25002 5.7152,9.7112 0.7027,-10.15281 5.8918,9.50027 1.3404,-6.44675 3.9787,6.45847 0.026,-13.17122 7.9156,13.33226 0.3213,-12.04203 7.0363,10.87513 0.5163,-10.06486 6.4509,10.07412 1.4692,-5.44951 3.5924,7.40464 1.6722,-6.50291 2.9834,4.62991 0.6208,-10.02071 6.1376,9.8755 0.2971,-11.66022 7.1083,12.33049 0.063,-13.68135 7.8101,13.31632 0.3829,-11.89849 6.8512,11.53992 0.1947,-12.65901 7.4156,11.49218 0.1141,-12.08232 7.658,13.97078 1.2505,-8.45 4.2486,7.33427 0.6688,-10.39134 5.9935,11.38616 1.3556,-8.09955 3.9332,6.73898 1.0731,-8.28921 4.7807,8.14415 0.3277,-12.03481 7.0166,10.48144 1.6174,-4.18467 3.1476,4.94233 1.501,-5.64767 3.4971,5.64135 1.2945,-6.8055 4.1167,7.58969 0.3793,-12.32595 6.8621,10.24076 0.3398,-10.62382 6.9804,10.46508 1.1566,-6.54842 4.5301,7.87433 1.2835,-7.38389 4.1496,7.94058 0.046,-14.3021 7.8626,14.63187 0.9173,-10.45839 5.248,8.89452 1.9644,-3.7936 2.1068,4.28449 1.2867,-7.79855 4.14,6.11324 0.4092,-10.66808 6.7724,10.9955 0.1863,-12.30751 7.441,13.20387 1.3268,-7.67567 4.0196,6.85384 0.7153,-10.07275 5.8543,10.12933 0.4503,-11.63999 6.6491,10.5164 1.1979,-6.95196 4.4063,8.67836 1.9195,-5.20459 2.2415,4.76412 1.2236,-8.37751 4.3291,6.28181 0.043,-12.37097 7.8704,13.51852 0.6869,-10.50313 5.9394,8.96643 1.7819,-3.64683 2.6543,4.57317 0.5288,-10.99936 6.4136,10.89421 0.9455,-8.99611 5.1636,9.57522 0.3873,-12.55643 6.838,11.19914 0.1977,-12.36159 7.4075,11.10432 1.5557,-4.49403 3.3328,5.70837 1.746,-4.89391 2.762,5.36133 1.5301,-6.57884 3.4098,4.82228 0.075,-12.28785 7.7764,12.96821 0.9958,-8.56667 5.0126,9.0028 0.2309,-13.02899 7.3075,12.40574 1.3578,-6.96266 3.9264,6.10945 1.0376,-7.87947 4.8873,7.69019 0.8631,-8.74695 5.4106,9.52789 0.1293,-13.41137 7.6126,14.23407 1.9948,-5.08576 2.0156,2.91564 0.942,-8.3357 5.174,7.87323 0.1357,-12.11879 7.5927,12.64117 0.6982,-10.05277 5.9056,8.54052 1.5055,-4.6858 3.4837,5.75837 1.0209,-8.35347 4.9373,8.94331 1.0665,-8.90298 4.8005,7.99777 1.1102,-7.96493 4.6694,7.37108 0.4794,-10.73085 6.5619,9.94746 1.377,-5.65768 3.8691,6.49093 0.2506,-12.32902 7.2479,12.00257 1.1017,-7.96469 4.6948,8.57634 0.9781,-9.38922 5.0658,7.55424 1.0285,-7.50023 4.9145,7.79398 0.038,-12.98821 7.8927,11.98787 0.8448,-8.18112 5.4656,9.16014 0.1788,-12.72541 7.4636,12.49421 0.2222,-12.53567 7.3336,12.3888 1.3587,-6.92535 3.9238,5.49951 0.5032,-9.9887 6.4906,10.82496 0.5525,-10.81854 6.3425,9.42687 0.2223,-11.33034 7.3334,11.20315 0.598,-9.57608 6.2058,9.73747 1.4327,-5.77568 3.7022,4.82822 1.9108,-2.60232 2.2674,5.06698 1.2879,-8.35324 4.1362,7.67711 0.5254,-11.71181 6.4237,10.64015 0.4882,-11.07945 6.5358,10.63943 0.1591,-12.55121 7.5224,13.18565 1.0494,-8.98341 4.8516,8.11169 0.9432,-8.86454 5.1703,8.27995 0.3964,-11.26185 6.811,10.75346 1.0903,-7.52702 4.729,8.8871 0.9938,-9.59214 5.0185,8.46016 0.094,-13.22005 7.7174,13.23823 0.6575,-10.69835 6.0274,9.70243 1.056,-7.95162 4.8321,8.38336 0.271,-12.56523 7.1863,13.46885 1.4286,-7.92739 3.7142,5.15787 0.9345,-7.84946 5.1966,7.42691 1.8516,-3.04695 2.4453,3.43927 1.5333,-5.2137 3.4003,5.49391 1.815,-4.26997 2.5549,3.6717 0.3921,-11.01829 6.8237,10.22379 0.6498,-9.21578 6.0507,10.79946 1.0133,-9.23872 4.9599,7.09903 0.7815,-8.5121 5.6556,8.05053 1.9473,-2.43831 2.1582,3.15141 1.3199,-6.48398 4.0404,5.58523 0.5614,-9.63206 6.3159,10.83279 1.8711,-4.51689 2.3866,3.11596 1.8898,-3.20104 2.3307,5.40105 0.9673,-10.23093 5.0981,7.82308 0.8416,-8.71483 5.4752,10.24779 0.7005,-11.22973 5.8983,9.472 0.8363,-9.07212 5.4911,9.11872 1.0311,-8.41133 4.9067,8.81068 0.4072,-12.21736 6.7785,10.53696 1.8047,-3.80429 2.5858,3.93578 1.4772,-5.78282 3.5686,5.1053 1.7736,-3.83446 2.6791,4.14408 0.8599,-8.95306 5.4202,9.00975 1.8557,-4.26918 2.4329,5.40362 0.077,-14.57015 7.7676,14.14597 0.4996,-12.37475 6.5011,10.4342 1.8082,-4.15371 2.5754,4.60696 0.3409,-12.21517 6.9774,11.33513 0.1939,-12.41866 7.4181,13.54868 1.3397,-8.12488 3.9808,7.10405 0.8322,-9.91828 5.5034,7.78294 0.2857,-10.84379 7.1422,11.65507 0.5672,-10.59354 6.2984,11.81015 1.9349,-5.23891 2.1952,2.40514 1.1691,-6.47389 4.4927,8.328 1.1098,-8.90646 4.6706,8.18992 0.6515,-10.79102 6.0456,10.12079 1.8579,-4.36314 2.4263,4.16993 1.3276,-7.06395 4.0174,8.08398 1.196,-9.01897 4.4121,7.31083 0.7424,-9.88786 5.7728,8.24306 1.1064,-6.73894 4.6807,9.10254 0.3436,-13.25607 6.9693,11.04215 1.2676,-6.7555 4.197,6.02237 1.1637,-6.83562 4.509,6.24181 0.5061,-9.86537 6.4817,10.12295 1.8887,-3.50998 2.334,4.75361 1.1514,-8.70685 4.5458,7.4602 0.4736,-11.19529 6.5793,11.09486 1.3569,-7.01568 3.9293,5.3693 1.9398,-2.71404 2.1807,3.60912 0.015,-13.56384 7.9523,14.38639 0.1523,-14.14298 7.5428,13.37947 1.1605,-8.71722 4.5184,6.14302 0.2241,-11.20205 7.3271,12.2668 1.672,-5.38023 2.984,5.67999 0.7316,-10.70701 5.8051,9.79178 1.7642,-4.95124 2.7073,3.94848 1.1489,-7.32508 4.5531,6.41288 0.019,-12.47025 7.9434,13.00245 1.8258,-4.33755 2.5225,4.42603 1.7566,-5.03983 2.7302,4.04444 1.4247,-5.99803 3.726,6.20648 1.2237,-7.54029 4.3289,8.21577 0.026,-14.61225 7.9159,12.53141 0.4518,-10.88416 6.6445,11.75486 1.0979,-8.9331 4.7062,7.9879 0.7196,-10.27504 5.8411,10.93877 0.13,-14.34836 7.6094,13.50839 0.2982,-13.16316 7.1051,12.32126 0.2,-13.30924 7.3997,12.25538 0.6087,-10.69404 6.1739,9.12042 0.6284,-9.48084 6.1149,11.28566 0.047,-14.69438 7.8588,13.99074 0.7245,-11.10527 5.8265,10.96799 0.555,-12.28755 6.3349,11.23237 1.9751,-4.52041 2.0748,2.31465 0.5163,-10.00299 6.4509,11.70195 1.1438,-9.024 4.5687,8.01099 0.7547,-10.4032 5.7359,8.77912 1.539,-5.28007 3.3832,4.99751 0.2884,-11.71116 7.1344,10.64317 0.1769,-11.7724 7.4697,12.34356 1.0682,-8.40471 4.7954,7.24446 0.7321,-9.40619 5.8036,9.04762 0.1742,-12.39466 7.4771,13.44739 0.019,-14.85449 7.9477,13.441 1.9014,-4.51292 2.2958,2.71528 1.2679,-6.27757 4.1964,7.73373 0.7815,-10.6567 5.6554,8.15995 0.7355,-8.93197 5.7934,9.24114 1.9203,-3.76964 2.2392,3.38816 1.0073,-8.38649 4.9779,7.91654 1.0234,-8.35267 4.9299,9.44864 1.0607,-9.78011 4.818,7.35245 1.1867,-7.2318 4.4398,8.00415 1.3585,-7.63444 3.9244,6.98417 0.9023,-9.78646 5.2933,8.14 0.2604,-11.97819 7.2188,11.65602 1.8001,-4.51157 2.5997,5.74148 1.6865,-6.73543 2.9406,5.49391 1.4057,-7.36556 3.7829,4.98496 1.3235,-5.90434 4.0295,5.50624 1.6308,-4.46205 3.1077,4.9077 1.697,-5.03761 2.9091,4.75202 1.8498,-4.43147 2.4505,2.83426 1.1591,-6.79102 4.5228,7.02555 0.2325,-12.33332 7.3026,11.77299 0.254,-12.44493 7.2377,10.66097 0.506,-10.16622 6.4819,10.72983 1.0227,-8.84171 4.932,8.31182 1.518,-6.43008 3.4461,4.65307 0.5926,-9.93038 6.2221,9.8831 1.8476,-4.23112 2.4572,5.15972 1.8803,-5.4808 2.3591,2.71325 1.2851,-6.24382 4.1447,7.89005 1.3863,-8.00314 3.8412,5.94599 1.2516,-7.25039 4.2451,5.72023 0.9212,-8.06848 5.2364,8.63164 1.1785,-8.06025 4.4646,5.94372 0.6326,-9.4348 6.1021,8.55046 1.4922,-4.98734 3.5233,4.31457 0.9302,-7.83248 5.2094,8.39541 0.1734,-13.06878 7.4796,12.14215 0.8162,-9.8495 5.5514,9.48666 0.8611,-10.1078 5.4169,7.30399 1.7312,-3.68727 2.8063,5.25962 0.1675,-13.92063 7.4979,13.35044 1.3094,-8.55514 4.072,7.27394 0.2514,-13.48277 7.246,10.62847 0.4119,-10.89183 6.7643,11.89089 1.7646,-5.98855 2.7061,4.91012 1.4736,-7.07952 3.579,7.12828 0.041,-15.28037 7.8776,14.00068 0.5409,-12.65145 6.3774,9.01814 1.8422,-3.39825 2.4734,2.94867 1.4213,-5.8114 3.7361,7.35812 1.1099,-9.80233 4.6702,6.13871 0.089,-12.36586 7.7337,11.75089 1.9793,-3.29285 2.0621,2.27119 0.8978,-8.54955 5.3064,9.40751 1.831,-5.65031 2.5068,3.83196 1.2636,-7.52601 4.2093,5.43443 0.3401,-11.18577 6.9802,12.06146 0.248,-13.85687 7.2561,11.18233 0.3647,-11.95359 6.9056,10.03882 0.971,-8.25127 5.0869,9.21971 1.0921,-9.73872 4.7238,8.78623 0.9236,-10.77701 5.2291,7.12152 1.0992,-7.40612 4.7023,7.6516 0.1119,-13.92725 7.6645,10.76907 0.9508,-7.96141 5.1475,8.35211 0.4975,-11.9466 6.5075,11.48417 1.5678,-7.34961 3.2966,5.53847 1.4257,-7.28547 3.7229,4.93998 1.9305,-3.38518 2.2084,2.73986 0.6409,-10.33038 6.0773,10.70644 1.6824,-6.7033 2.9527,5.56622 1.0939,-9.62575 4.7185,7.53889 0.8922,-9.84133 5.3232,7.5073 0.026,-13.36269 7.9155,12.48768 0.617,-11.14843 6.1488,10.00374 0.8104,-10.47894 5.569,10.19018 1.9728,-5.52604 2.082,3.22992 1.6281,-5.92222 3.1158,4.27474 0.178,-12.8907 7.4659,11.42241 0.5337,-11.25036 6.399,10.44697 1.4798,-7.03243 3.5606,4.25958 1.3431,-6.07729 3.9706,7.67477 0.997,-10.63943 5.0088,8.33445 1.6295,-6.33683 3.1115,4.00015 0.3424,-11.73135 6.9728,12.14808 0.4583,-13.09762 6.6251,11.37648 1.3829,-8.04241 3.8512,6.75169 1.6149,-6.62367 3.1553,3.83181 0.6976,-9.57325 5.9073,9.7414 1.8588,-5.01946 2.4236,3.7516 0.1671,-13.37383 7.4984,10.753 1.2157,-6.76461 4.3528,6.1694 0.7041,-9.8442 5.8878,8.12465 1.4796,-5.27947 3.561,4.74107 0.3811,-11.28396 6.8567,10.61418 1.9478,-3.71086 2.1566,4.55643 1.1663,-9.23287 4.501,7.14529 1.9464,-3.98254 2.1609,4.84217 0.098,-14.93722 7.7055,12.1779 1.9328,-3.80856 2.2016,3.0308 1.0551,-8.05261 4.835,6.38741 0.8685,-8.03349 5.3945,10.16887 0.2793,-13.84526 7.1614,10.40343 1.1597,-6.62783 4.5209,8.93858 0.5107,-12.71437 6.4678,9.57461 1.747,-3.8122 2.7589,4.21196 0.9575,-8.49236 5.1275,9.04286 0.9032,-9.63459 5.2905,7.60802 1.4165,-5.27399 3.7505,5.26397 0.9561,-7.736 5.1315,9.27742 0.5929,-11.21475 6.2213,9.30803 1.5091,-4.76887 3.4729,4.60579 1.1245,-6.5093 4.6265,7.62178 1.7606,-4.37305 2.7183,6.05424 0.9432,-10.01943 5.1704,7.67186 0.2602,-10.86371 7.2239,12.90162 0.4237,-11.73747 6.729,10.45434 1.8293,-3.09494 2.512,4.82239 1.2762,-7.26328 4.1715,6.4932 0.5227,-9.79356 6.4319,10.67718 0.3338,-11.00986 6.9981,12.2979 0.2071,-12.2146 7.3784,11.44198 1.2658,-5.45891 4.2026,7.8538 0.9147,-8.94795 5.2558,9.82145 1.813,-4.69601 2.5611,6.05927 1.2039,-8.47616 4.3883,6.51924 1.4061,-4.79866 3.7815,6.56384 0.657,-9.49562 6.0292,11.99785 1.9606,-4.71328 2.118,5.124 0.1633,-13.24748 7.5102,12.01742 1.279,-5.44429 4.1629,7.15716 0.8677,-8.3026 5.3974,9.95189 1.809,-4.39738 2.5727,4.50022 1.572,-4.93899 3.2843,5.41673 1.5113,-4.91401 3.4661,5.91246 0.9815,-7.64702 5.0555,7.65685 0.2816,-10.02359 7.155,12.32811 1.4699,-5.32569 3.5904,5.76597 0.7585,-8.33487 5.7245,10.06943 1.0155,-7.71396 4.9537,8.50915 0.4094,-10.40438 6.7718,10.79866 1.6223,-3.70273 3.1332,5.30161 0.5497,-9.65784 6.351,12.50488 1.8874,-4.85668 2.3378,5.43246 1.3886,-7.11373 3.834,7.18985 0.4152,-10.99577 6.7544,13.31042 0.3295,-12.50359 7.011,12.13636 1.5031,-5.22802 3.4909,5.52495 1.5675,-4.37641 3.2973,6.54634 0.9348,-8.7964 5.196,10.15565 0.5358,-11.07522 6.3924,9.98224 1.8182,-2.65119 2.5457,6.16978 0.9456,-9.68807 5.1628,9.15712 0.1904,-11.84024 7.4281,12.50053 1.0431,-7.17738 4.8706,7.75615 1.5894,-4.19476 3.2317,6.4043 1.275,-7.19223 4.175,8.42021 0.9473,-9.18826 5.1581,10.52139 1.8158,-5.4009 2.5525,3.33072 1.0241,-6.53285 4.9277,8.25584 1.345,-5.83801 3.965,8.2095 1.1195,-8.54943 4.6414,8.13757 0.099,-12.28985 7.7019,14.14691 0.039,-13.37149 7.8827,15.02196 0.5413,-11.51686 6.3761,10.22209 1.1975,-6.11932 4.4077,8.97845 1.9907,-4.39058 2.0278,5.10345 1.3408,-7.75879 3.9777,6.46825 1.261,-6.18985 4.2168,7.4291 1.6597,-4.80913 3.0209,5.67601 1.7211,-4.80713 2.8365,6.09665 1.0369,-8.89058 4.8895,7.56005 0.2725,-10.59464 7.1824,11.66135 1.8359,-3.16486 2.4921,5.2352 1.4887,-6.4416 3.534,5.59622 0.99,-7.47267 5.03,9.53288 0.6041,-10.76045 6.188,11.32618 1.1802,-7.77712 4.4594,9.20459 0.175,-13.52986 7.4749,14.38215 0.6261,-11.38468 6.1221,10.71918 1.0487,-7.9664 4.8541,7.16479 1.4151,-4.78219 3.7546,8.06637 0.7848,-10.65179 5.6454,8.77274 1.4049,-5.11486 3.7849,5.51848 1.8706,-2.74522 2.3886,5.69125 1.5099,-7.06331 3.4702,6.74726 1.9406,-4.17586 2.178,3.20757 0.6697,-9.07385 5.9907,11.62495 0.7984,-10.40048 5.6048,8.43272 0.9498,-7.12885 5.1502,10.32497 0.271,-13.13693 7.1864,12.64831 1.0787,-8.05091 4.7639,8.07207 0.8931,-8.50053 5.3203,10.69341 0.2615,-13.29568 7.2154,12.80225 0.03,-13.34968 7.9128,12.86454 1.3368,-5.80653 3.9893,6.3117 1.374,-5.71868 3.8778,7.08107 1.2522,-7.28169 4.2431,6.87727 1.7729,-3.90199 2.6818,3.83226 1.4354,-5.16369 3.6936,5.799 1.9899,-2.69181 2.0302,3.31552 0.9267,-8.26348 5.2199,9.16653 1.4491,-6.15266 3.6526,5.06184 1.1093,-6.37702 4.6716,9.53772 1.0231,-9.56157 4.9312,8.27572 0.5397,-10.25081 6.3807,12.08187 0.714,-10.75531 5.8587,8.72783 1.7261,-3.29488 2.8211,5.86208 0.5087,-11.56996 6.4741,10.07438 0.7468,-8.44451 5.759,11.17968 0.8224,-10.39085 5.5329,8.78271 1.3149,-5.94905 4.0551,7.08372 1.759,-4.55537 2.7232,3.95162 1.3165,-5.85913 4.0513,5.74907 1.9317,-2.37883 2.2039,5.31428 1.9472,-4.98723 2.1585,4.37709 1.7742,-4.98447 2.6774,5.50779 1.3565,-7.3046 3.9308,8.06293 1.1463,-8.78728 4.5608,9.4136 0.1815,-13.84428 7.4544,12.25912 0.6308,-9.59781 6.1074,11.85399 1.5285,-7.03167 3.4148,5.0099 0.1399,-11.58738 7.5765,14.4139 0.7824,-10.81167 5.6535,8.30407 1.4298,-4.7442 3.7104,7.73823 1.1981,-8.60095 4.4055,8.06735 0.7064,-10.19382 5.8807,9.04381 1.4184,-5.16596 3.7445,5.17325 1.8909,-2.55964 2.3267,3.14283 0.9925,-7.36526 5.0234,7.25577 0.042,-11.64166 7.8755,12.65031 1.5674,-4.6872 3.2977,5.43601 0.1814,-12.04312 7.456,11.46197 0.7154,-8.42713 5.8538,8.72961 1.1366,-6.31147 4.5903,7.48798 0.3137,-11.2651 7.0545,12.73388 1.061,-8.67416 4.817,7.2521 0.094,-11.73778 7.7122,12.3667 1.0802,-7.11025 4.7593,9.54271 1.2813,-8.26318 4.156,7.40291 1.9351,-3.90234 2.1944,3.36685 1.3138,-6.24503 4.0589,7.97044 1.6267,-6.1629 3.1193,4.75803 0.3704,-10.7612 6.8925,11.69604 1.8954,-3.79386 2.3135,2.86004 1.7756,-3.25599 2.6726,3.93855 1.8588,-3.31983 2.4238,5.73747 1.5561,-7.03659 3.3309,6.03761 0.3402,-11.84443 6.9839,11.77742 1.0994,-7.67401 4.7018,9.2719 0.2835,-13.05802 7.1544,13.25645 1.4351,-7.20629 3.6941,5.63716 1.2469,-6.34107 4.2596,6.11293 1.7632,-3.30852 2.7103,5.73822 1.1887,-8.38646 4.4334,7.36651 0.7151,-9.46621 5.8542,9.82217 0.7174,-9.5265 5.8488,8.81601 0.3886,-10.15953 6.8346,10.81521 1.6256,-4.37202 3.1234,5.37044 0.3969,-11.25743 6.8093,13.01746 0.8247,-10.59082 5.5257,8.48639 0.1096,-11.76952 7.6744,12.35048 0.7979,-8.60689 5.6063,9.75531 1.8296,-4.37346 2.5108,3.13868 0.4082,-10.00987 6.776,10.37176 1.9919,-2.22292 2.0243,4.87013 1.2548,-8.36144 1.2322,6.73967 3.7202,-5.52722 1.6876,5.54638 3.1435,-4.2357 0.8957,5.26208 -11.4298,47.60991 -4160.3192183,85.35196 z" />
  </g>
</svg>
