<?xml version="1.0" encoding="UTF-8" standalone="no"?>
<!-- Created with Inkscape (http://www.inkscape.org/) -->

<svg
   xmlns:dc="http://purl.org/dc/elements/1.1/"
   xmlns:cc="http://creativecommons.org/ns#"
   xmlns:rdf="http://www.w3.org/1999/02/22-rdf-syntax-ns#"
   xmlns:svg="http://www.w3.org/2000/svg"
   xmlns="http://www.w3.org/2000/svg"
   xmlns:sodipodi="http://sodipodi.sourceforge.net/DTD/sodipodi-0.dtd"
   xmlns:inkscape="http://www.inkscape.org/namespaces/inkscape"
   width="700"
   height="335"
   viewBox="0 0 700 335.00002"
   version="1.1"
   id="svg7024"
   inkscape:version="0.91+devel r14527 custom"
   sodipodi:docname="tree.svg">
  <defs
     id="defs7018" />
  <sodipodi:namedview
     id="base"
     pagecolor="#ffffff"
     bordercolor="#666666"
     borderopacity="1.0"
     inkscape:pageopacity="0.0"
     inkscape:pageshadow="2"
     inkscape:zoom="1.4"
     inkscape:cx="357.70375"
     inkscape:cy="177.9978"
     inkscape:document-units="px"
     inkscape:current-layer="g7642"
     showgrid="false"
     units="px"
     fit-margin-top="0"
     fit-margin-left="0"
     fit-margin-right="0"
     fit-margin-bottom="0"
     inkscape:window-width="1920"
     inkscape:window-height="1016"
     inkscape:window-x="0"
     inkscape:window-y="27"
     inkscape:window-maximized="1" />
  <metadata
     id="metadata7021">
    <rdf:RDF>
      <cc:Work
         rdf:about="">
        <dc:format>image/svg+xml</dc:format>
        <dc:type
           rdf:resource="http://purl.org/dc/dcmitype/StillImage" />
        <dc:title></dc:title>
      </cc:Work>
    </rdf:RDF>
  </metadata>
  <g
     inkscape:label="Layer 1"
     inkscape:groupmode="layer"
     id="layer1"
     transform="translate(13.748022,-731.52411)">
    <g
       id="g5075"
       transform="matrix(5.1772073,0,0,5.1772073,-4335.2653,165.36314)">
      <path
         sodipodi:nodetypes="scsssscscs"
         inkscape:connector-curvature="0"
         id="path4838"
         d="m 868.80745,110.08886 c -6.84082,2.41784 -9.49572,14.7583 -6.21383,19.53788 -8.64535,-1.83824 -21.73166,3.77825 -21.73166,12.06338 0,13.88637 16.17265,8.59122 21.30172,10.89809 8.74618,3.93373 17.1789,9.67588 26.74908,7.82708 4.06076,-0.78447 9.41925,-5.25681 9.4747,-9.56696 0.0593,-4.60749 -3.03901,-9.1889 -9.67552,-9.87302 5.70248,-0.28348 14.87032,-9.38676 12.97376,-15.98079 -1.78906,-6.22025 -13.26077,-7.70855 -18.37732,-6.2693 -0.97101,-4.5091 -8.97224,-10.59045 -14.50093,-8.63636 z"
         style="fill:#255321;fill-opacity:1;fill-rule:evenodd;stroke:none;stroke-width:0.26458335px;stroke-linecap:butt;stroke-linejoin:miter;stroke-opacity:1" />
      <path
         d="m 868.19222,174.06314 c 6.91548,-19.85634 8.07171,-37.90056 1.96238,-58.27298 11.06439,19.6215 9.62526,38.64361 4.46294,58.18823 z m 6.36403,-23.24938 -0.61961,7.97317 c -4.43637,-10.94843 -14.05439,-14.70007 -22.93958,-16.52573 7.95246,-1.29544 19.30265,1.61953 23.55919,8.55256 z m 1.0314,-14.84053 c 4.25654,-6.93303 9.18061,-7.98255 17.2329,-8.26633 -8.28384,3.4961 -12.17692,5.29107 -16.61329,16.2395 z m 2.12644,13.45597 c 3.00522,-1.4159 7.03072,-1.41909 12.35152,0.37121 -5.39675,-0.23257 -9.37318,1.52331 -13.00382,3.76329 z"
         style="fill:#8a7041;fill-opacity:1;fill-rule:nonzero;stroke:none;stroke-width:0.26458335px;stroke-linecap:butt;stroke-linejoin:miter;stroke-opacity:1"
         id="path4840"
         inkscape:connector-curvature="0" />
      <path
         sodipodi:nodetypes="cccccccccc"
         inkscape:connector-curvature="0"
         id="path4844"
         d="m 886.25129,152.06858 c -8.07221,-6.09716 -17.20774,-6.32596 -26.78581,-4.1124 l -14.32814,-4.53184 22.72474,-13.79247 1.63714,-17.15806 11.93228,11.97726 15.08168,2.57771 -11.45897,13.62633 10.68131,10.32009 z"
         style="fill:#255321;fill-opacity:1;fill-rule:evenodd;stroke:none;stroke-width:0.26458335px;stroke-linecap:butt;stroke-linejoin:miter;stroke-opacity:1" />
    </g>
    <g
       transform="matrix(5.1772073,0,0,5.1772073,-3985.2657,165.36314)"
       id="g7642">
      <path
         inkscape:connector-curvature="0"
         id="path7638"
         style="fill:#8a7041;fill-opacity:1;fill-rule:nonzero;stroke:none;stroke-width:0.26458335px;stroke-linecap:butt;stroke-linejoin:miter;stroke-opacity:1"
         d="m 868.19222,174.06314 c 6.91548,-19.85634 8.07171,-37.90056 1.96238,-58.27298 11.06439,19.6215 9.62526,38.64361 4.46294,58.18823 z m 6.36403,-23.24938 -0.61961,7.97317 c -4.43637,-10.94843 -14.05439,-14.70007 -22.93958,-16.52573 7.95246,-1.29544 19.30265,1.61953 23.55919,8.55256 z m 1.0314,-14.84053 c 4.25654,-6.93303 9.18061,-7.98255 17.2329,-8.26633 -8.28384,3.4961 -12.17692,5.29107 -16.61329,16.2395 z m 2.12644,13.45597 c 3.00522,-1.4159 7.03072,-1.41909 12.35152,0.37121 -5.39675,-0.23257 -9.37318,1.52331 -13.00382,3.76329 z" />
    </g>
  </g>
</svg>
